{"glyphs":{"0":{"ha":840,"x_min":83,"x_max":755,"o":"m 419 0 q 295 37 355 0 q 187 136 234 73 q 112 291 140 199 q 83 486 83 383 q 112 681 83 589 q 187 836 140 773 q 295 936 234 899 q 419 972 355 972 q 544 936 484 972 q 652 836 605 899 q 727 681 699 773 q 755 486 755 589 q 727 291 755 383 q 652 136 699 199 q 544 37 605 73 q 419 0 484 0 m 419 118 q 525 164 475 118 q 606 296 575 210 q 637 486 637 382 q 572 749 637 644 q 419 854 506 854 q 267 749 333 854 q 201 486 201 643 q 267 223 201 329 q 419 118 333 118 z "},"1":{"ha":840,"x_min":281,"x_max":559,"o":"m 441 58 l 441 785 l 390 739 q 384 732 388 736 q 367 721 380 728 q 339 714 354 714 q 298 731 316 714 q 281 771 281 747 q 301 818 281 802 l 463 958 q 500 972 479 972 q 542 955 524 972 q 559 914 559 938 l 559 58 q 543 17 559 35 q 498 0 526 0 q 459 17 476 0 q 441 58 441 34 z "},"2":{"ha":840,"x_min":102,"x_max":739,"o":"m 288 117 l 663 118 q 704 100 687 118 q 721 58 721 82 q 705 17 721 34 q 663 0 690 0 l 157 0 q 119 16 137 0 q 102 58 102 31 q 118 102 102 83 l 553 615 q 621 745 621 693 q 575 829 621 803 q 443 854 530 854 q 329 827 380 854 q 252 746 279 799 q 196 710 234 710 q 155 727 172 710 q 138 768 138 744 q 150 810 138 785 q 189 863 163 835 q 250 916 215 892 q 336 956 285 940 q 443 972 387 972 q 661 912 583 972 q 739 745 739 852 q 729 680 739 713 q 705 623 720 648 q 680 584 690 597 q 663 561 670 570 l 288 117 z "},"3":{"ha":840,"x_min":104,"x_max":734,"o":"m 526 854 l 208 854 q 166 872 182 854 q 150 914 150 890 q 167 956 150 939 q 210 972 184 972 l 659 972 q 665 972 661 972 q 679 967 669 971 q 696 958 688 964 q 709 939 703 951 q 715 909 715 926 q 697 868 715 886 l 467 628 q 482 626 472 627 q 519 618 492 625 q 572 600 547 611 q 629 568 597 589 q 682 519 660 547 q 719 448 704 492 q 734 353 734 405 q 714 240 734 291 q 660 153 694 189 q 579 89 627 117 q 481 45 532 62 q 373 18 431 28 q 264 4 315 7 q 163 0 214 0 q 120 18 136 0 q 104 57 104 35 q 121 100 104 83 q 163 118 138 118 q 367 136 279 118 q 510 185 456 153 q 592 259 565 217 q 619 354 619 302 q 599 433 619 401 q 541 483 579 465 q 454 509 503 501 q 342 517 406 517 q 299 532 317 517 q 281 574 281 547 q 294 614 281 598 l 526 854 z "},"4":{"ha":840,"x_min":86,"x_max":754,"o":"m 505 343 l 505 774 l 250 343 l 505 343 m 623 343 l 696 343 q 736 326 719 343 q 754 286 754 309 q 739 243 754 262 q 699 225 723 225 l 624 225 l 624 58 q 607 18 624 35 q 566 0 590 0 q 522 17 538 0 q 505 58 505 35 l 505 225 l 146 225 q 102 242 117 225 q 86 283 86 259 q 88 300 86 292 q 92 312 90 308 l 94 317 l 476 947 q 524 972 494 972 l 564 972 q 605 955 587 972 q 623 914 623 938 l 623 343 z "},"5":{"ha":840,"x_min":113,"x_max":726,"o":"m 281 854 l 281 647 q 301 655 285 648 q 324 666 317 663 q 348 674 331 669 q 379 682 366 680 q 414 687 393 685 q 458 689 435 689 q 643 614 570 689 q 717 427 717 538 q 682 275 717 346 q 590 155 647 205 q 461 70 533 106 q 315 17 389 34 q 171 0 240 0 q 130 16 146 0 q 113 58 113 33 q 127 98 113 80 q 164 118 142 116 q 279 135 222 122 q 395 173 337 148 q 498 232 454 198 q 571 316 543 266 q 599 427 599 367 q 560 533 599 492 q 458 574 522 574 q 399 565 430 574 q 351 549 368 557 q 304 526 334 541 q 222 498 250 498 q 181 515 198 498 q 164 554 164 532 l 164 914 q 181 955 164 937 q 222 972 198 972 l 671 972 q 710 955 694 972 q 726 913 726 938 q 709 872 726 889 q 671 854 692 854 l 281 854 z "},"6":{"ha":840,"x_min":100,"x_max":739,"o":"m 621 314 q 562 454 621 397 q 419 511 503 511 q 279 453 338 511 q 220 314 220 395 q 278 175 220 232 q 419 118 336 118 q 562 175 504 118 q 621 314 621 232 m 610 972 q 649 956 631 972 q 667 914 667 939 q 661 887 667 899 q 648 870 656 876 q 632 860 640 864 q 619 856 625 857 l 614 854 q 509 840 559 854 q 410 794 459 825 q 320 707 361 763 q 253 574 279 650 q 419 629 336 629 q 584 587 510 629 q 699 472 658 544 q 739 314 739 399 q 696 157 739 229 q 579 42 653 85 q 419 0 505 0 q 298 22 355 0 q 197 88 241 45 q 126 202 152 132 q 100 361 100 272 q 138 611 100 496 q 245 805 177 726 q 407 928 313 884 q 610 972 500 972 z "},"7":{"ha":840,"x_min":104,"x_max":736,"o":"m 595 854 l 158 854 q 120 872 136 854 q 104 911 104 889 q 121 955 104 937 q 160 972 138 972 l 677 972 q 718 956 700 972 q 736 916 736 939 q 730 885 736 899 l 425 40 q 421 32 424 36 q 413 19 419 27 q 395 5 406 11 q 368 0 383 0 q 326 18 342 0 q 310 58 310 35 q 314 81 310 71 l 595 854 z "},"8":{"ha":840,"x_min":102,"x_max":737,"o":"m 710 724 q 700 656 710 688 q 674 604 689 624 q 643 568 659 583 q 617 546 628 553 l 607 539 q 621 530 612 536 q 652 501 630 524 q 692 453 675 479 q 723 386 709 428 q 737 300 737 345 q 694 151 737 220 q 577 41 651 82 q 419 0 504 0 q 261 41 334 0 q 145 151 188 82 q 102 300 102 220 q 115 391 102 348 q 147 459 128 433 q 185 505 166 486 q 217 532 204 524 l 231 541 q 220 547 227 543 q 195 567 213 551 q 164 602 178 583 q 140 653 151 621 q 129 724 129 686 q 170 851 129 793 q 278 941 212 909 q 419 972 345 972 q 563 938 496 972 q 670 846 631 903 q 710 724 710 788 m 619 300 q 561 428 619 376 q 419 481 502 481 q 278 428 336 481 q 220 300 220 376 q 278 172 220 226 q 419 118 337 118 q 560 172 501 118 q 619 300 619 226 m 591 724 q 541 815 591 775 q 419 854 490 854 q 298 815 349 854 q 248 724 248 775 q 297 635 248 671 q 419 599 347 599 q 541 635 491 599 q 591 724 591 671 z "},"9":{"ha":840,"x_min":100,"x_max":739,"o":"m 277 798 q 248 770 277 798 q 218 659 218 741 q 277 518 218 576 q 419 461 335 461 q 560 520 500 461 q 619 659 619 578 q 561 798 619 741 q 419 854 503 854 q 277 798 335 854 m 229 0 q 190 17 208 0 q 172 58 172 34 q 178 85 172 73 q 191 103 183 97 q 207 112 199 109 q 220 117 214 116 l 225 118 q 330 133 279 118 q 429 178 380 147 q 519 266 478 210 q 586 399 560 322 q 419 343 503 343 q 255 386 328 343 q 140 501 181 429 q 100 659 100 573 q 143 815 100 743 q 259 930 186 888 q 419 972 333 972 q 541 950 484 972 q 642 884 597 927 q 713 770 687 840 q 739 611 739 700 q 701 361 739 476 q 594 168 662 247 q 432 44 526 89 q 229 0 338 0 z "},"\u0000":{"ha":0,"x_min":0,"x_max":0,"o":""},"\r":{"ha":840,"x_min":0,"x_max":0,"o":""}," ":{"ha":840,"x_min":0,"x_max":0,"o":""}," ":{"ha":840,"x_min":0,"x_max":0,"o":""},"!":{"ha":840,"x_min":187,"x_max":653,"o":"m 421 229 q 256 298 326 229 q 187 463 187 368 q 256 626 187 557 q 421 694 326 694 q 584 626 515 694 q 653 463 653 557 q 584 298 653 368 q 421 229 515 229 z "},"\"":{"ha":840,"x_min":187,"x_max":653,"o":"m 421 229 q 256 298 326 229 q 187 463 187 368 q 256 626 187 557 q 421 694 326 694 q 584 626 515 694 q 653 463 653 557 q 584 298 653 368 q 421 229 515 229 z "},"#":{"ha":840,"x_min":187,"x_max":653,"o":"m 421 229 q 256 298 326 229 q 187 463 187 368 q 256 626 187 557 q 421 694 326 694 q 584 626 515 694 q 653 463 653 557 q 584 298 653 368 q 421 229 515 229 z "},"$":{"ha":840,"x_min":187,"x_max":653,"o":"m 421 229 q 256 298 326 229 q 187 463 187 368 q 256 626 187 557 q 421 694 326 694 q 584 626 515 694 q 653 463 653 557 q 584 298 653 368 q 421 229 515 229 z "},"%":{"ha":840,"x_min":187,"x_max":653,"o":"m 421 229 q 256 298 326 229 q 187 463 187 368 q 256 626 187 557 q 421 694 326 694 q 584 626 515 694 q 653 463 653 557 q 584 298 653 368 q 421 229 515 229 z "},"&":{"ha":840,"x_min":187,"x_max":653,"o":"m 421 229 q 256 298 326 229 q 187 463 187 368 q 256 626 187 557 q 421 694 326 694 q 584 626 515 694 q 653 463 653 557 q 584 298 653 368 q 421 229 515 229 z "},"'":{"ha":840,"x_min":187,"x_max":653,"o":"m 421 229 q 256 298 326 229 q 187 463 187 368 q 256 626 187 557 q 421 694 326 694 q 584 626 515 694 q 653 463 653 557 q 584 298 653 368 q 421 229 515 229 z "},"(":{"ha":840,"x_min":187,"x_max":653,"o":"m 421 229 q 256 298 326 229 q 187 463 187 368 q 256 626 187 557 q 421 694 326 694 q 584 626 515 694 q 653 463 653 557 q 584 298 653 368 q 421 229 515 229 z "},")":{"ha":840,"x_min":187,"x_max":653,"o":"m 421 229 q 256 298 326 229 q 187 463 187 368 q 256 626 187 557 q 421 694 326 694 q 584 626 515 694 q 653 463 653 557 q 584 298 653 368 q 421 229 515 229 z "},"*":{"ha":840,"x_min":187,"x_max":653,"o":"m 421 229 q 256 298 326 229 q 187 463 187 368 q 256 626 187 557 q 421 694 326 694 q 584 626 515 694 q 653 463 653 557 q 584 298 653 368 q 421 229 515 229 z "},"+":{"ha":840,"x_min":187,"x_max":653,"o":"m 421 229 q 256 298 326 229 q 187 463 187 368 q 256 626 187 557 q 421 694 326 694 q 584 626 515 694 q 653 463 653 557 q 584 298 653 368 q 421 229 515 229 z "},":":{"ha":840,"x_min":187,"x_max":653,"o":"m 421 229 q 256 298 326 229 q 187 463 187 368 q 256 626 187 557 q 421 694 326 694 q 584 626 515 694 q 653 463 653 557 q 584 298 653 368 q 421 229 515 229 z "},";":{"ha":840,"x_min":187,"x_max":653,"o":"m 421 229 q 256 298 326 229 q 187 463 187 368 q 256 626 187 557 q 421 694 326 694 q 584 626 515 694 q 653 463 653 557 q 584 298 653 368 q 421 229 515 229 z "},"<":{"ha":840,"x_min":187,"x_max":653,"o":"m 421 229 q 256 298 326 229 q 187 463 187 368 q 256 626 187 557 q 421 694 326 694 q 584 626 515 694 q 653 463 653 557 q 584 298 653 368 q 421 229 515 229 z "},"=":{"ha":840,"x_min":187,"x_max":653,"o":"m 421 229 q 256 298 326 229 q 187 463 187 368 q 256 626 187 557 q 421 694 326 694 q 584 626 515 694 q 653 463 653 557 q 584 298 653 368 q 421 229 515 229 z "},">":{"ha":840,"x_min":187,"x_max":653,"o":"m 421 229 q 256 298 326 229 q 187 463 187 368 q 256 626 187 557 q 421 694 326 694 q 584 626 515 694 q 653 463 653 557 q 584 298 653 368 q 421 229 515 229 z "},"?":{"ha":840,"x_min":187,"x_max":653,"o":"m 421 229 q 256 298 326 229 q 187 463 187 368 q 256 626 187 557 q 421 694 326 694 q 584 626 515 694 q 653 463 653 557 q 584 298 653 368 q 421 229 515 229 z "},"@":{"ha":840,"x_min":187,"x_max":653,"o":"m 421 229 q 256 298 326 229 q 187 463 187 368 q 256 626 187 557 q 421 694 326 694 q 584 626 515 694 q 653 463 653 557 q 584 298 653 368 q 421 229 515 229 z "},"[":{"ha":840,"x_min":187,"x_max":653,"o":"m 421 229 q 256 298 326 229 q 187 463 187 368 q 256 626 187 557 q 421 694 326 694 q 584 626 515 694 q 653 463 653 557 q 584 298 653 368 q 421 229 515 229 z "},"\\":{"ha":840,"x_min":187,"x_max":653,"o":"m 421 229 q 256 298 326 229 q 187 463 187 368 q 256 626 187 557 q 421 694 326 694 q 584 626 515 694 q 653 463 653 557 q 584 298 653 368 q 421 229 515 229 z "},"]":{"ha":840,"x_min":187,"x_max":653,"o":"m 421 229 q 256 298 326 229 q 187 463 187 368 q 256 626 187 557 q 421 694 326 694 q 584 626 515 694 q 653 463 653 557 q 584 298 653 368 q 421 229 515 229 z "},"^":{"ha":840,"x_min":187,"x_max":653,"o":"m 421 229 q 256 298 326 229 q 187 463 187 368 q 256 626 187 557 q 421 694 326 694 q 584 626 515 694 q 653 463 653 557 q 584 298 653 368 q 421 229 515 229 z "},"_":{"ha":840,"x_min":187,"x_max":653,"o":"m 421 229 q 256 298 326 229 q 187 463 187 368 q 256 626 187 557 q 421 694 326 694 q 584 626 515 694 q 653 463 653 557 q 584 298 653 368 q 421 229 515 229 z "},"`":{"ha":840,"x_min":187,"x_max":653,"o":"m 421 229 q 256 298 326 229 q 187 463 187 368 q 256 626 187 557 q 421 694 326 694 q 584 626 515 694 q 653 463 653 557 q 584 298 653 368 q 421 229 515 229 z "},"{":{"ha":840,"x_min":187,"x_max":653,"o":"m 421 229 q 256 298 326 229 q 187 463 187 368 q 256 626 187 557 q 421 694 326 694 q 584 626 515 694 q 653 463 653 557 q 584 298 653 368 q 421 229 515 229 z "},"|":{"ha":840,"x_min":187,"x_max":653,"o":"m 421 229 q 256 298 326 229 q 187 463 187 368 q 256 626 187 557 q 421 694 326 694 q 584 626 515 694 q 653 463 653 557 q 584 298 653 368 q 421 229 515 229 z "},"}":{"ha":840,"x_min":187,"x_max":653,"o":"m 421 229 q 256 298 326 229 q 187 463 187 368 q 256 626 187 557 q 421 694 326 694 q 584 626 515 694 q 653 463 653 557 q 584 298 653 368 q 421 229 515 229 z "},"~":{"ha":840,"x_min":187,"x_max":653,"o":"m 421 229 q 256 298 326 229 q 187 463 187 368 q 256 626 187 557 q 421 694 326 694 q 584 626 515 694 q 653 463 653 557 q 584 298 653 368 q 421 229 515 229 z "},"¡":{"ha":840,"x_min":187,"x_max":653,"o":"m 421 229 q 256 298 326 229 q 187 463 187 368 q 256 626 187 557 q 421 694 326 694 q 584 626 515 694 q 653 463 653 557 q 584 298 653 368 q 421 229 515 229 z "},"¢":{"ha":840,"x_min":187,"x_max":653,"o":"m 421 229 q 256 298 326 229 q 187 463 187 368 q 256 626 187 557 q 421 694 326 694 q 584 626 515 694 q 653 463 653 557 q 584 298 653 368 q 421 229 515 229 z "},"£":{"ha":840,"x_min":187,"x_max":653,"o":"m 421 229 q 256 298 326 229 q 187 463 187 368 q 256 626 187 557 q 421 694 326 694 q 584 626 515 694 q 653 463 653 557 q 584 298 653 368 q 421 229 515 229 z "},"¤":{"ha":840,"x_min":187,"x_max":653,"o":"m 421 229 q 256 298 326 229 q 187 463 187 368 q 256 626 187 557 q 421 694 326 694 q 584 626 515 694 q 653 463 653 557 q 584 298 653 368 q 421 229 515 229 z "},"¥":{"ha":840,"x_min":187,"x_max":653,"o":"m 421 229 q 256 298 326 229 q 187 463 187 368 q 256 626 187 557 q 421 694 326 694 q 584 626 515 694 q 653 463 653 557 q 584 298 653 368 q 421 229 515 229 z "},"¦":{"ha":840,"x_min":187,"x_max":653,"o":"m 421 229 q 256 298 326 229 q 187 463 187 368 q 256 626 187 557 q 421 694 326 694 q 584 626 515 694 q 653 463 653 557 q 584 298 653 368 q 421 229 515 229 z "},"§":{"ha":840,"x_min":187,"x_max":653,"o":"m 421 229 q 256 298 326 229 q 187 463 187 368 q 256 626 187 557 q 421 694 326 694 q 584 626 515 694 q 653 463 653 557 q 584 298 653 368 q 421 229 515 229 z "},"¨":{"ha":840,"x_min":187,"x_max":653,"o":"m 421 229 q 256 298 326 229 q 187 463 187 368 q 256 626 187 557 q 421 694 326 694 q 584 626 515 694 q 653 463 653 557 q 584 298 653 368 q 421 229 515 229 z "},"©":{"ha":840,"x_min":187,"x_max":653,"o":"m 421 229 q 256 298 326 229 q 187 463 187 368 q 256 626 187 557 q 421 694 326 694 q 584 626 515 694 q 653 463 653 557 q 584 298 653 368 q 421 229 515 229 z "},"«":{"ha":840,"x_min":187,"x_max":653,"o":"m 421 229 q 256 298 326 229 q 187 463 187 368 q 256 626 187 557 q 421 694 326 694 q 584 626 515 694 q 653 463 653 557 q 584 298 653 368 q 421 229 515 229 z "},"¬":{"ha":840,"x_min":187,"x_max":653,"o":"m 421 229 q 256 298 326 229 q 187 463 187 368 q 256 626 187 557 q 421 694 326 694 q 584 626 515 694 q 653 463 653 557 q 584 298 653 368 q 421 229 515 229 z "},"®":{"ha":840,"x_min":187,"x_max":653,"o":"m 421 229 q 256 298 326 229 q 187 463 187 368 q 256 626 187 557 q 421 694 326 694 q 584 626 515 694 q 653 463 653 557 q 584 298 653 368 q 421 229 515 229 z "},"¯":{"ha":840,"x_min":187,"x_max":653,"o":"m 421 229 q 256 298 326 229 q 187 463 187 368 q 256 626 187 557 q 421 694 326 694 q 584 626 515 694 q 653 463 653 557 q 584 298 653 368 q 421 229 515 229 z "},"°":{"ha":840,"x_min":187,"x_max":653,"o":"m 421 229 q 256 298 326 229 q 187 463 187 368 q 256 626 187 557 q 421 694 326 694 q 584 626 515 694 q 653 463 653 557 q 584 298 653 368 q 421 229 515 229 z "},"±":{"ha":840,"x_min":187,"x_max":653,"o":"m 421 229 q 256 298 326 229 q 187 463 187 368 q 256 626 187 557 q 421 694 326 694 q 584 626 515 694 q 653 463 653 557 q 584 298 653 368 q 421 229 515 229 z "},"´":{"ha":840,"x_min":187,"x_max":653,"o":"m 421 229 q 256 298 326 229 q 187 463 187 368 q 256 626 187 557 q 421 694 326 694 q 584 626 515 694 q 653 463 653 557 q 584 298 653 368 q 421 229 515 229 z "},"µ":{"ha":840,"x_min":187,"x_max":653,"o":"m 421 229 q 256 298 326 229 q 187 463 187 368 q 256 626 187 557 q 421 694 326 694 q 584 626 515 694 q 653 463 653 557 q 584 298 653 368 q 421 229 515 229 z "},"¸":{"ha":840,"x_min":187,"x_max":653,"o":"m 421 229 q 256 298 326 229 q 187 463 187 368 q 256 626 187 557 q 421 694 326 694 q 584 626 515 694 q 653 463 653 557 q 584 298 653 368 q 421 229 515 229 z "},"»":{"ha":840,"x_min":187,"x_max":653,"o":"m 421 229 q 256 298 326 229 q 187 463 187 368 q 256 626 187 557 q 421 694 326 694 q 584 626 515 694 q 653 463 653 557 q 584 298 653 368 q 421 229 515 229 z "},"¿":{"ha":840,"x_min":187,"x_max":653,"o":"m 421 229 q 256 298 326 229 q 187 463 187 368 q 256 626 187 557 q 421 694 326 694 q 584 626 515 694 q 653 463 653 557 q 584 298 653 368 q 421 229 515 229 z "},"Æ":{"ha":840,"x_min":187,"x_max":653,"o":"m 421 229 q 256 298 326 229 q 187 463 187 368 q 256 626 187 557 q 421 694 326 694 q 584 626 515 694 q 653 463 653 557 q 584 298 653 368 q 421 229 515 229 z "},"Ð":{"ha":840,"x_min":187,"x_max":653,"o":"m 421 229 q 256 298 326 229 q 187 463 187 368 q 256 626 187 557 q 421 694 326 694 q 584 626 515 694 q 653 463 653 557 q 584 298 653 368 q 421 229 515 229 z "},"×":{"ha":840,"x_min":187,"x_max":653,"o":"m 421 229 q 256 298 326 229 q 187 463 187 368 q 256 626 187 557 q 421 694 326 694 q 584 626 515 694 q 653 463 653 557 q 584 298 653 368 q 421 229 515 229 z "},"Ø":{"ha":840,"x_min":187,"x_max":653,"o":"m 421 229 q 256 298 326 229 q 187 463 187 368 q 256 626 187 557 q 421 694 326 694 q 584 626 515 694 q 653 463 653 557 q 584 298 653 368 q 421 229 515 229 z "},"Þ":{"ha":840,"x_min":187,"x_max":653,"o":"m 421 229 q 256 298 326 229 q 187 463 187 368 q 256 626 187 557 q 421 694 326 694 q 584 626 515 694 q 653 463 653 557 q 584 298 653 368 q 421 229 515 229 z "},"ß":{"ha":840,"x_min":187,"x_max":653,"o":"m 421 229 q 256 298 326 229 q 187 463 187 368 q 256 626 187 557 q 421 694 326 694 q 584 626 515 694 q 653 463 653 557 q 584 298 653 368 q 421 229 515 229 z "},"æ":{"ha":840,"x_min":187,"x_max":653,"o":"m 421 229 q 256 298 326 229 q 187 463 187 368 q 256 626 187 557 q 421 694 326 694 q 584 626 515 694 q 653 463 653 557 q 584 298 653 368 q 421 229 515 229 z "},"ð":{"ha":840,"x_min":187,"x_max":653,"o":"m 421 229 q 256 298 326 229 q 187 463 187 368 q 256 626 187 557 q 421 694 326 694 q 584 626 515 694 q 653 463 653 557 q 584 298 653 368 q 421 229 515 229 z "},"÷":{"ha":840,"x_min":187,"x_max":653,"o":"m 421 229 q 256 298 326 229 q 187 463 187 368 q 256 626 187 557 q 421 694 326 694 q 584 626 515 694 q 653 463 653 557 q 584 298 653 368 q 421 229 515 229 z "},"ø":{"ha":840,"x_min":187,"x_max":653,"o":"m 421 229 q 256 298 326 229 q 187 463 187 368 q 256 626 187 557 q 421 694 326 694 q 584 626 515 694 q 653 463 653 557 q 584 298 653 368 q 421 229 515 229 z "},"þ":{"ha":840,"x_min":187,"x_max":653,"o":"m 421 229 q 256 298 326 229 q 187 463 187 368 q 256 626 187 557 q 421 694 326 694 q 584 626 515 694 q 653 463 653 557 q 584 298 653 368 q 421 229 515 229 z "},"ı":{"ha":840,"x_min":187,"x_max":653,"o":"m 421 229 q 256 298 326 229 q 187 463 187 368 q 256 626 187 557 q 421 694 326 694 q 584 626 515 694 q 653 463 653 557 q 584 298 653 368 q 421 229 515 229 z "},"Œ":{"ha":840,"x_min":187,"x_max":653,"o":"m 421 229 q 256 298 326 229 q 187 463 187 368 q 256 626 187 557 q 421 694 326 694 q 584 626 515 694 q 653 463 653 557 q 584 298 653 368 q 421 229 515 229 z "},"œ":{"ha":840,"x_min":187,"x_max":653,"o":"m 421 229 q 256 298 326 229 q 187 463 187 368 q 256 626 187 557 q 421 694 326 694 q 584 626 515 694 q 653 463 653 557 q 584 298 653 368 q 421 229 515 229 z "},"ƒ":{"ha":840,"x_min":187,"x_max":653,"o":"m 421 229 q 256 298 326 229 q 187 463 187 368 q 256 626 187 557 q 421 694 326 694 q 584 626 515 694 q 653 463 653 557 q 584 298 653 368 q 421 229 515 229 z "},"ˆ":{"ha":840,"x_min":187,"x_max":653,"o":"m 421 229 q 256 298 326 229 q 187 463 187 368 q 256 626 187 557 q 421 694 326 694 q 584 626 515 694 q 653 463 653 557 q 584 298 653 368 q 421 229 515 229 z "},"ˇ":{"ha":840,"x_min":187,"x_max":653,"o":"m 421 229 q 256 298 326 229 q 187 463 187 368 q 256 626 187 557 q 421 694 326 694 q 584 626 515 694 q 653 463 653 557 q 584 298 653 368 q 421 229 515 229 z "},"˘":{"ha":840,"x_min":187,"x_max":653,"o":"m 421 229 q 256 298 326 229 q 187 463 187 368 q 256 626 187 557 q 421 694 326 694 q 584 626 515 694 q 653 463 653 557 q 584 298 653 368 q 421 229 515 229 z "},"˙":{"ha":840,"x_min":187,"x_max":653,"o":"m 421 229 q 256 298 326 229 q 187 463 187 368 q 256 626 187 557 q 421 694 326 694 q 584 626 515 694 q 653 463 653 557 q 584 298 653 368 q 421 229 515 229 z "},"˚":{"ha":840,"x_min":187,"x_max":653,"o":"m 421 229 q 256 298 326 229 q 187 463 187 368 q 256 626 187 557 q 421 694 326 694 q 584 626 515 694 q 653 463 653 557 q 584 298 653 368 q 421 229 515 229 z "},"˛":{"ha":840,"x_min":187,"x_max":653,"o":"m 421 229 q 256 298 326 229 q 187 463 187 368 q 256 626 187 557 q 421 694 326 694 q 584 626 515 694 q 653 463 653 557 q 584 298 653 368 q 421 229 515 229 z "},"˜":{"ha":840,"x_min":187,"x_max":653,"o":"m 421 229 q 256 298 326 229 q 187 463 187 368 q 256 626 187 557 q 421 694 326 694 q 584 626 515 694 q 653 463 653 557 q 584 298 653 368 q 421 229 515 229 z "},"˝":{"ha":840,"x_min":187,"x_max":653,"o":"m 421 229 q 256 298 326 229 q 187 463 187 368 q 256 626 187 557 q 421 694 326 694 q 584 626 515 694 q 653 463 653 557 q 584 298 653 368 q 421 229 515 229 z "},"Ω":{"ha":840,"x_min":187,"x_max":653,"o":"m 421 229 q 256 298 326 229 q 187 463 187 368 q 256 626 187 557 q 421 694 326 694 q 584 626 515 694 q 653 463 653 557 q 584 298 653 368 q 421 229 515 229 z "},"π":{"ha":840,"x_min":187,"x_max":653,"o":"m 421 229 q 256 298 326 229 q 187 463 187 368 q 256 626 187 557 q 421 694 326 694 q 584 626 515 694 q 653 463 653 557 q 584 298 653 368 q 421 229 515 229 z "},"–":{"ha":840,"x_min":187,"x_max":653,"o":"m 421 229 q 256 298 326 229 q 187 463 187 368 q 256 626 187 557 q 421 694 326 694 q 584 626 515 694 q 653 463 653 557 q 584 298 653 368 q 421 229 515 229 z "},"—":{"ha":840,"x_min":187,"x_max":653,"o":"m 421 229 q 256 298 326 229 q 187 463 187 368 q 256 626 187 557 q 421 694 326 694 q 584 626 515 694 q 653 463 653 557 q 584 298 653 368 q 421 229 515 229 z "},"‘":{"ha":840,"x_min":187,"x_max":653,"o":"m 421 229 q 256 298 326 229 q 187 463 187 368 q 256 626 187 557 q 421 694 326 694 q 584 626 515 694 q 653 463 653 557 q 584 298 653 368 q 421 229 515 229 z "},"‚":{"ha":840,"x_min":187,"x_max":653,"o":"m 421 229 q 256 298 326 229 q 187 463 187 368 q 256 626 187 557 q 421 694 326 694 q 584 626 515 694 q 653 463 653 557 q 584 298 653 368 q 421 229 515 229 z "},"“":{"ha":840,"x_min":187,"x_max":653,"o":"m 421 229 q 256 298 326 229 q 187 463 187 368 q 256 626 187 557 q 421 694 326 694 q 584 626 515 694 q 653 463 653 557 q 584 298 653 368 q 421 229 515 229 z "},"”":{"ha":840,"x_min":187,"x_max":653,"o":"m 421 229 q 256 298 326 229 q 187 463 187 368 q 256 626 187 557 q 421 694 326 694 q 584 626 515 694 q 653 463 653 557 q 584 298 653 368 q 421 229 515 229 z "},"„":{"ha":840,"x_min":187,"x_max":653,"o":"m 421 229 q 256 298 326 229 q 187 463 187 368 q 256 626 187 557 q 421 694 326 694 q 584 626 515 694 q 653 463 653 557 q 584 298 653 368 q 421 229 515 229 z "},"†":{"ha":840,"x_min":187,"x_max":653,"o":"m 421 229 q 256 298 326 229 q 187 463 187 368 q 256 626 187 557 q 421 694 326 694 q 584 626 515 694 q 653 463 653 557 q 584 298 653 368 q 421 229 515 229 z "},"‡":{"ha":840,"x_min":187,"x_max":653,"o":"m 421 229 q 256 298 326 229 q 187 463 187 368 q 256 626 187 557 q 421 694 326 694 q 584 626 515 694 q 653 463 653 557 q 584 298 653 368 q 421 229 515 229 z "},"•":{"ha":840,"x_min":187,"x_max":653,"o":"m 421 229 q 256 298 326 229 q 187 463 187 368 q 256 626 187 557 q 421 694 326 694 q 584 626 515 694 q 653 463 653 557 q 584 298 653 368 q 421 229 515 229 z "},"‰":{"ha":840,"x_min":187,"x_max":653,"o":"m 421 229 q 256 298 326 229 q 187 463 187 368 q 256 626 187 557 q 421 694 326 694 q 584 626 515 694 q 653 463 653 557 q 584 298 653 368 q 421 229 515 229 z "},"‹":{"ha":840,"x_min":187,"x_max":653,"o":"m 421 229 q 256 298 326 229 q 187 463 187 368 q 256 626 187 557 q 421 694 326 694 q 584 626 515 694 q 653 463 653 557 q 584 298 653 368 q 421 229 515 229 z "},"›":{"ha":840,"x_min":187,"x_max":653,"o":"m 421 229 q 256 298 326 229 q 187 463 187 368 q 256 626 187 557 q 421 694 326 694 q 584 626 515 694 q 653 463 653 557 q 584 298 653 368 q 421 229 515 229 z "},"⁄":{"ha":840,"x_min":187,"x_max":653,"o":"m 421 229 q 256 298 326 229 q 187 463 187 368 q 256 626 187 557 q 421 694 326 694 q 584 626 515 694 q 653 463 653 557 q 584 298 653 368 q 421 229 515 229 z "},"€":{"ha":840,"x_min":187,"x_max":653,"o":"m 421 229 q 256 298 326 229 q 187 463 187 368 q 256 626 187 557 q 421 694 326 694 q 584 626 515 694 q 653 463 653 557 q 584 298 653 368 q 421 229 515 229 z "},"∂":{"ha":840,"x_min":187,"x_max":653,"o":"m 421 229 q 256 298 326 229 q 187 463 187 368 q 256 626 187 557 q 421 694 326 694 q 584 626 515 694 q 653 463 653 557 q 584 298 653 368 q 421 229 515 229 z "},"∆":{"ha":840,"x_min":187,"x_max":653,"o":"m 421 229 q 256 298 326 229 q 187 463 187 368 q 256 626 187 557 q 421 694 326 694 q 584 626 515 694 q 653 463 653 557 q 584 298 653 368 q 421 229 515 229 z "},"∏":{"ha":840,"x_min":187,"x_max":653,"o":"m 421 229 q 256 298 326 229 q 187 463 187 368 q 256 626 187 557 q 421 694 326 694 q 584 626 515 694 q 653 463 653 557 q 584 298 653 368 q 421 229 515 229 z "},"∑":{"ha":840,"x_min":187,"x_max":653,"o":"m 421 229 q 256 298 326 229 q 187 463 187 368 q 256 626 187 557 q 421 694 326 694 q 584 626 515 694 q 653 463 653 557 q 584 298 653 368 q 421 229 515 229 z "},"√":{"ha":840,"x_min":187,"x_max":653,"o":"m 421 229 q 256 298 326 229 q 187 463 187 368 q 256 626 187 557 q 421 694 326 694 q 584 626 515 694 q 653 463 653 557 q 584 298 653 368 q 421 229 515 229 z "},"∞":{"ha":840,"x_min":187,"x_max":653,"o":"m 421 229 q 256 298 326 229 q 187 463 187 368 q 256 626 187 557 q 421 694 326 694 q 584 626 515 694 q 653 463 653 557 q 584 298 653 368 q 421 229 515 229 z "},"∫":{"ha":840,"x_min":187,"x_max":653,"o":"m 421 229 q 256 298 326 229 q 187 463 187 368 q 256 626 187 557 q 421 694 326 694 q 584 626 515 694 q 653 463 653 557 q 584 298 653 368 q 421 229 515 229 z "},"≈":{"ha":840,"x_min":187,"x_max":653,"o":"m 421 229 q 256 298 326 229 q 187 463 187 368 q 256 626 187 557 q 421 694 326 694 q 584 626 515 694 q 653 463 653 557 q 584 298 653 368 q 421 229 515 229 z "},"≠":{"ha":840,"x_min":187,"x_max":653,"o":"m 421 229 q 256 298 326 229 q 187 463 187 368 q 256 626 187 557 q 421 694 326 694 q 584 626 515 694 q 653 463 653 557 q 584 298 653 368 q 421 229 515 229 z "},"≤":{"ha":840,"x_min":187,"x_max":653,"o":"m 421 229 q 256 298 326 229 q 187 463 187 368 q 256 626 187 557 q 421 694 326 694 q 584 626 515 694 q 653 463 653 557 q 584 298 653 368 q 421 229 515 229 z "},"≥":{"ha":840,"x_min":187,"x_max":653,"o":"m 421 229 q 256 298 326 229 q 187 463 187 368 q 256 626 187 557 q 421 694 326 694 q 584 626 515 694 q 653 463 653 557 q 584 298 653 368 q 421 229 515 229 z "},"◊":{"ha":840,"x_min":187,"x_max":653,"o":"m 421 229 q 256 298 326 229 q 187 463 187 368 q 256 626 187 557 q 421 694 326 694 q 584 626 515 694 q 653 463 653 557 q 584 298 653 368 q 421 229 515 229 z "},"":{"ha":840,"x_min":187,"x_max":653,"o":"m 421 229 q 256 298 326 229 q 187 463 187 368 q 256 626 187 557 q 421 694 326 694 q 584 626 515 694 q 653 463 653 557 q 584 298 653 368 q 421 229 515 229 z "},",":{"ha":840,"x_min":281,"x_max":558,"o":"m 558 103 q 536 26 558 67 q 482 -49 515 -15 q 422 -107 449 -83 q 375 -144 395 -130 q 339 -158 355 -158 q 297 -141 314 -158 q 281 -97 281 -123 q 289 -70 281 -83 q 311 -49 297 -56 q 337 -30 322 -43 q 361 -8 352 -18 l 371 1 q 356 15 365 6 q 333 51 347 24 q 318 106 318 78 q 350 183 318 145 q 439 221 382 221 q 522 186 486 221 q 558 103 558 151 z "},"-":{"ha":840,"x_min":211,"x_max":628,"o":"m 268 542 l 570 542 q 610 525 593 542 q 628 484 628 507 q 611 441 628 459 q 570 424 595 424 l 268 424 q 227 441 243 424 q 211 484 211 458 q 228 525 211 507 q 268 542 245 542 z "},".":{"ha":840,"x_min":298,"x_max":541,"o":"m 421 0 q 335 37 372 0 q 298 122 298 73 q 335 203 298 167 q 421 240 372 240 q 504 203 467 240 q 541 122 541 166 q 504 37 541 74 q 421 0 467 0 z "},"…":{"ha":840,"x_min":298,"x_max":541,"o":"m 421 0 q 335 37 372 0 q 298 122 298 73 q 335 203 298 167 q 421 240 372 240 q 504 203 467 240 q 541 122 541 166 q 504 37 541 74 q 421 0 467 0 z "},"/":{"ha":840,"x_min":117,"x_max":722,"o":"m 717 933 l 229 -65 q 224 -74 228 -68 q 206 -89 220 -80 q 174 -98 192 -98 q 133 -82 150 -98 q 117 -40 117 -65 q 118 -28 117 -34 q 121 -18 119 -22 l 122 -14 l 611 987 q 661 1018 626 1018 q 704 1001 686 1018 q 722 960 722 984 q 717 933 722 944 z "},"¹":{"ha":840,"x_min":281,"x_max":559,"o":"m 441 58 l 441 785 l 390 739 q 384 732 388 736 q 367 721 380 728 q 339 714 354 714 q 298 731 316 714 q 281 771 281 747 q 301 818 281 802 l 463 958 q 500 972 479 972 q 542 955 524 972 q 559 914 559 938 l 559 58 q 543 17 559 35 q 498 0 526 0 q 459 17 476 0 q 441 58 441 34 z "},"¼":{"ha":840,"x_min":281,"x_max":559,"o":"m 441 58 l 441 785 l 390 739 q 384 732 388 736 q 367 721 380 728 q 339 714 354 714 q 298 731 316 714 q 281 771 281 747 q 301 818 281 802 l 463 958 q 500 972 479 972 q 542 955 524 972 q 559 914 559 938 l 559 58 q 543 17 559 35 q 498 0 526 0 q 459 17 476 0 q 441 58 441 34 z "},"½":{"ha":840,"x_min":281,"x_max":559,"o":"m 441 58 l 441 785 l 390 739 q 384 732 388 736 q 367 721 380 728 q 339 714 354 714 q 298 731 316 714 q 281 771 281 747 q 301 818 281 802 l 463 958 q 500 972 479 972 q 542 955 524 972 q 559 914 559 938 l 559 58 q 543 17 559 35 q 498 0 526 0 q 459 17 476 0 q 441 58 441 34 z "},"²":{"ha":840,"x_min":102,"x_max":739,"o":"m 288 117 l 663 118 q 704 100 687 118 q 721 58 721 82 q 705 17 721 34 q 663 0 690 0 l 157 0 q 119 16 137 0 q 102 58 102 31 q 118 102 102 83 l 553 615 q 621 745 621 693 q 575 829 621 803 q 443 854 530 854 q 329 827 380 854 q 252 746 279 799 q 196 710 234 710 q 155 727 172 710 q 138 768 138 744 q 150 810 138 785 q 189 863 163 835 q 250 916 215 892 q 336 956 285 940 q 443 972 387 972 q 661 912 583 972 q 739 745 739 852 q 729 680 739 713 q 705 623 720 648 q 680 584 690 597 q 663 561 670 570 l 288 117 z "},"³":{"ha":840,"x_min":104,"x_max":734,"o":"m 526 854 l 208 854 q 166 872 182 854 q 150 914 150 890 q 167 956 150 939 q 210 972 184 972 l 659 972 q 665 972 661 972 q 679 967 669 971 q 696 958 688 964 q 709 939 703 951 q 715 909 715 926 q 697 868 715 886 l 467 628 q 482 626 472 627 q 519 618 492 625 q 572 600 547 611 q 629 568 597 589 q 682 519 660 547 q 719 448 704 492 q 734 353 734 405 q 714 240 734 291 q 660 153 694 189 q 579 89 627 117 q 481 45 532 62 q 373 18 431 28 q 264 4 315 7 q 163 0 214 0 q 120 18 136 0 q 104 57 104 35 q 121 100 104 83 q 163 118 138 118 q 367 136 279 118 q 510 185 456 153 q 592 259 565 217 q 619 354 619 302 q 599 433 619 401 q 541 483 579 465 q 454 509 503 501 q 342 517 406 517 q 299 532 317 517 q 281 574 281 547 q 294 614 281 598 l 526 854 z "},"¾":{"ha":840,"x_min":104,"x_max":734,"o":"m 526 854 l 208 854 q 166 872 182 854 q 150 914 150 890 q 167 956 150 939 q 210 972 184 972 l 659 972 q 665 972 661 972 q 679 967 669 971 q 696 958 688 964 q 709 939 703 951 q 715 909 715 926 q 697 868 715 886 l 467 628 q 482 626 472 627 q 519 618 492 625 q 572 600 547 611 q 629 568 597 589 q 682 519 660 547 q 719 448 704 492 q 734 353 734 405 q 714 240 734 291 q 660 153 694 189 q 579 89 627 117 q 481 45 532 62 q 373 18 431 28 q 264 4 315 7 q 163 0 214 0 q 120 18 136 0 q 104 57 104 35 q 121 100 104 83 q 163 118 138 118 q 367 136 279 118 q 510 185 456 153 q 592 259 565 217 q 619 354 619 302 q 599 433 619 401 q 541 483 579 465 q 454 509 503 501 q 342 517 406 517 q 299 532 317 517 q 281 574 281 547 q 294 614 281 598 l 526 854 z "},"A":{"ha":840,"x_min":68,"x_max":771,"o":"m 576 267 l 262 267 l 189 47 q 127 0 174 0 q 86 18 104 0 q 68 61 68 36 l 72 85 l 351 926 q 412 972 367 972 l 427 972 q 488 926 472 972 l 766 85 q 771 61 771 73 q 753 18 771 36 q 711 0 735 0 q 650 47 665 0 l 576 267 m 301 385 l 538 385 l 419 737 l 301 385 z "},"À":{"ha":840,"x_min":68,"x_max":771,"o":"m 576 267 l 262 267 l 189 47 q 127 0 174 0 q 86 18 104 0 q 68 61 68 36 l 72 85 l 351 926 q 412 972 367 972 l 427 972 q 488 926 472 972 l 766 85 q 771 61 771 73 q 753 18 771 36 q 711 0 735 0 q 650 47 665 0 l 576 267 m 301 385 l 538 385 l 419 737 l 301 385 z "},"Á":{"ha":840,"x_min":68,"x_max":771,"o":"m 576 267 l 262 267 l 189 47 q 127 0 174 0 q 86 18 104 0 q 68 61 68 36 l 72 85 l 351 926 q 412 972 367 972 l 427 972 q 488 926 472 972 l 766 85 q 771 61 771 73 q 753 18 771 36 q 711 0 735 0 q 650 47 665 0 l 576 267 m 301 385 l 538 385 l 419 737 l 301 385 z "},"Â":{"ha":840,"x_min":68,"x_max":771,"o":"m 576 267 l 262 267 l 189 47 q 127 0 174 0 q 86 18 104 0 q 68 61 68 36 l 72 85 l 351 926 q 412 972 367 972 l 427 972 q 488 926 472 972 l 766 85 q 771 61 771 73 q 753 18 771 36 q 711 0 735 0 q 650 47 665 0 l 576 267 m 301 385 l 538 385 l 419 737 l 301 385 z "},"Ã":{"ha":840,"x_min":68,"x_max":771,"o":"m 576 267 l 262 267 l 189 47 q 127 0 174 0 q 86 18 104 0 q 68 61 68 36 l 72 85 l 351 926 q 412 972 367 972 l 427 972 q 488 926 472 972 l 766 85 q 771 61 771 73 q 753 18 771 36 q 711 0 735 0 q 650 47 665 0 l 576 267 m 301 385 l 538 385 l 419 737 l 301 385 z "},"Ä":{"ha":840,"x_min":68,"x_max":771,"o":"m 576 267 l 262 267 l 189 47 q 127 0 174 0 q 86 18 104 0 q 68 61 68 36 l 72 85 l 351 926 q 412 972 367 972 l 427 972 q 488 926 472 972 l 766 85 q 771 61 771 73 q 753 18 771 36 q 711 0 735 0 q 650 47 665 0 l 576 267 m 301 385 l 538 385 l 419 737 l 301 385 z "},"Å":{"ha":840,"x_min":68,"x_max":771,"o":"m 576 267 l 262 267 l 189 47 q 127 0 174 0 q 86 18 104 0 q 68 61 68 36 l 72 85 l 351 926 q 412 972 367 972 l 427 972 q 488 926 472 972 l 766 85 q 771 61 771 73 q 753 18 771 36 q 711 0 735 0 q 650 47 665 0 l 576 267 m 301 385 l 538 385 l 419 737 l 301 385 z "},"B":{"ha":840,"x_min":87,"x_max":779,"o":"m 476 0 l 144 0 q 104 17 120 0 q 87 58 87 34 l 87 913 q 104 955 87 937 q 144 972 120 972 l 472 972 q 571 958 526 972 q 655 915 617 944 q 715 834 693 885 q 737 714 737 783 q 730 645 737 678 q 713 591 723 612 q 693 553 703 570 q 677 530 684 537 l 669 522 q 681 512 674 519 q 707 483 688 506 q 741 436 726 460 q 767 371 755 411 q 779 289 779 331 q 758 166 779 220 q 705 83 737 113 q 631 33 673 52 q 551 6 589 13 q 476 0 514 0 m 205 118 l 475 118 q 518 121 496 118 q 567 136 541 125 q 614 165 594 148 q 648 215 634 183 q 661 289 661 248 q 614 412 661 372 q 488 452 566 452 l 205 452 l 205 118 m 205 570 l 489 570 q 582 605 544 570 q 619 714 619 640 q 605 781 619 752 q 568 825 591 810 q 521 847 545 840 q 472 854 497 854 l 205 854 l 205 570 z "},"C":{"ha":840,"x_min":49,"x_max":771,"o":"m 653 307 q 711 347 668 347 q 751 329 734 347 q 768 288 768 311 q 758 250 768 278 q 721 178 748 221 q 656 95 694 134 q 554 28 618 56 q 414 0 490 0 q 142 124 236 0 q 49 486 49 248 q 59 625 49 559 q 96 756 70 692 q 162 868 122 821 q 267 945 203 916 q 414 974 332 974 q 525 959 473 974 q 612 920 576 943 q 676 866 647 896 q 722 807 705 836 q 751 751 739 778 q 767 708 762 724 q 771 686 771 692 q 754 644 771 662 q 711 627 738 627 q 654 673 667 627 q 597 775 637 732 q 510 837 557 817 q 414 856 463 856 q 167 486 167 856 q 414 118 167 118 q 553 163 491 118 q 653 307 615 209 z "},"Ç":{"ha":840,"x_min":49,"x_max":771,"o":"m 653 307 q 711 347 668 347 q 751 329 734 347 q 768 288 768 311 q 758 250 768 278 q 721 178 748 221 q 656 95 694 134 q 554 28 618 56 q 414 0 490 0 q 142 124 236 0 q 49 486 49 248 q 59 625 49 559 q 96 756 70 692 q 162 868 122 821 q 267 945 203 916 q 414 974 332 974 q 525 959 473 974 q 612 920 576 943 q 676 866 647 896 q 722 807 705 836 q 751 751 739 778 q 767 708 762 724 q 771 686 771 692 q 754 644 771 662 q 711 627 738 627 q 654 673 667 627 q 597 775 637 732 q 510 837 557 817 q 414 856 463 856 q 167 486 167 856 q 414 118 167 118 q 553 163 491 118 q 653 307 615 209 z "},"D":{"ha":840,"x_min":74,"x_max":747,"o":"m 376 0 l 132 0 q 90 18 106 0 q 74 58 74 36 l 74 913 q 91 955 74 937 q 132 972 107 972 l 376 972 q 649 844 550 972 q 747 484 747 715 q 648 126 747 253 q 376 0 549 0 m 192 118 l 376 118 q 564 213 498 118 q 629 484 629 308 q 627 547 629 515 q 616 617 624 579 q 597 687 609 654 q 566 752 585 720 q 520 805 546 783 q 457 841 494 827 q 376 854 420 854 l 192 854 l 192 118 z "},"E":{"ha":840,"x_min":93,"x_max":726,"o":"m 211 118 l 667 118 q 709 100 692 118 q 726 58 726 83 q 710 18 726 36 q 667 0 694 0 l 153 0 q 109 18 125 0 q 93 58 93 35 l 93 913 q 110 955 93 937 q 153 972 126 972 l 667 972 q 708 955 690 972 q 726 914 726 938 q 709 871 726 888 q 667 854 691 854 l 211 854 l 211 545 l 547 545 q 590 527 572 545 q 607 486 607 510 q 591 444 607 461 q 547 427 574 427 l 211 427 l 211 118 z "},"È":{"ha":840,"x_min":93,"x_max":726,"o":"m 211 118 l 667 118 q 709 100 692 118 q 726 58 726 83 q 710 18 726 36 q 667 0 694 0 l 153 0 q 109 18 125 0 q 93 58 93 35 l 93 913 q 110 955 93 937 q 153 972 126 972 l 667 972 q 708 955 690 972 q 726 914 726 938 q 709 871 726 888 q 667 854 691 854 l 211 854 l 211 545 l 547 545 q 590 527 572 545 q 607 486 607 510 q 591 444 607 461 q 547 427 574 427 l 211 427 l 211 118 z "},"É":{"ha":840,"x_min":93,"x_max":726,"o":"m 211 118 l 667 118 q 709 100 692 118 q 726 58 726 83 q 710 18 726 36 q 667 0 694 0 l 153 0 q 109 18 125 0 q 93 58 93 35 l 93 913 q 110 955 93 937 q 153 972 126 972 l 667 972 q 708 955 690 972 q 726 914 726 938 q 709 871 726 888 q 667 854 691 854 l 211 854 l 211 545 l 547 545 q 590 527 572 545 q 607 486 607 510 q 591 444 607 461 q 547 427 574 427 l 211 427 l 211 118 z "},"Ê":{"ha":840,"x_min":93,"x_max":726,"o":"m 211 118 l 667 118 q 709 100 692 118 q 726 58 726 83 q 710 18 726 36 q 667 0 694 0 l 153 0 q 109 18 125 0 q 93 58 93 35 l 93 913 q 110 955 93 937 q 153 972 126 972 l 667 972 q 708 955 690 972 q 726 914 726 938 q 709 871 726 888 q 667 854 691 854 l 211 854 l 211 545 l 547 545 q 590 527 572 545 q 607 486 607 510 q 591 444 607 461 q 547 427 574 427 l 211 427 l 211 118 z "},"Ë":{"ha":840,"x_min":93,"x_max":726,"o":"m 211 118 l 667 118 q 709 100 692 118 q 726 58 726 83 q 710 18 726 36 q 667 0 694 0 l 153 0 q 109 18 125 0 q 93 58 93 35 l 93 913 q 110 955 93 937 q 153 972 126 972 l 667 972 q 708 955 690 972 q 726 914 726 938 q 709 871 726 888 q 667 854 691 854 l 211 854 l 211 545 l 547 545 q 590 527 572 545 q 607 486 607 510 q 591 444 607 461 q 547 427 574 427 l 211 427 l 211 118 z "},"F":{"ha":840,"x_min":127,"x_max":761,"o":"m 245 427 l 245 57 q 229 17 245 34 q 186 0 212 0 q 144 17 161 0 q 127 57 127 35 l 127 913 q 144 955 127 937 q 187 972 161 972 l 703 972 q 744 955 726 972 q 761 914 761 938 q 744 871 761 888 q 703 854 727 854 l 245 854 l 245 545 l 583 545 q 624 527 607 545 q 642 486 642 510 q 625 444 642 462 q 583 427 608 427 l 245 427 z "},"G":{"ha":840,"x_min":56,"x_max":765,"o":"m 765 441 l 765 408 q 763 350 765 378 q 754 279 762 322 q 733 200 746 236 q 695 126 720 165 q 635 61 669 87 q 548 17 601 35 q 429 0 495 0 q 149 118 242 0 q 56 479 56 235 q 64 593 56 536 q 91 705 73 649 q 139 809 109 762 q 210 893 170 857 q 306 951 250 930 q 429 972 363 972 q 552 950 496 972 q 644 897 609 928 q 704 829 679 865 q 740 765 729 793 q 750 724 750 738 q 733 683 750 700 q 694 667 717 667 q 655 678 669 667 q 633 710 642 689 q 553 812 611 769 q 429 854 494 854 q 243 756 313 854 q 174 479 174 659 q 236 205 174 292 q 429 118 298 118 q 506 130 471 118 q 563 160 541 142 q 601 203 585 178 q 626 253 618 229 q 640 304 635 277 q 646 349 645 332 q 647 382 647 366 l 437 382 q 394 399 410 382 q 378 441 378 416 q 395 483 378 467 q 437 500 412 500 l 705 500 q 747 484 728 500 q 765 441 765 467 z "},"H":{"ha":840,"x_min":82,"x_max":737,"o":"m 619 543 l 619 913 q 636 955 619 937 q 679 972 652 972 q 721 955 704 972 q 737 913 737 937 l 737 58 q 721 18 737 36 q 677 0 705 0 q 635 17 652 0 q 619 58 619 35 l 619 425 l 200 425 l 200 58 q 183 17 200 34 q 140 0 166 0 q 98 17 115 0 q 82 58 82 34 l 82 914 q 99 955 82 938 q 142 972 117 972 q 183 955 165 972 q 200 914 200 938 l 200 543 l 619 543 z "},"I":{"ha":840,"x_min":351,"x_max":469,"o":"m 469 914 l 469 57 q 453 17 469 35 q 411 0 436 0 q 368 17 384 0 q 351 57 351 34 l 351 914 q 369 955 351 938 q 411 972 386 972 q 452 955 434 972 q 469 914 469 938 z "},"Ì":{"ha":840,"x_min":351,"x_max":469,"o":"m 469 914 l 469 57 q 453 17 469 35 q 411 0 436 0 q 368 17 384 0 q 351 57 351 34 l 351 914 q 369 955 351 938 q 411 972 386 972 q 452 955 434 972 q 469 914 469 938 z "},"Í":{"ha":840,"x_min":351,"x_max":469,"o":"m 469 914 l 469 57 q 453 17 469 35 q 411 0 436 0 q 368 17 384 0 q 351 57 351 34 l 351 914 q 369 955 351 938 q 411 972 386 972 q 452 955 434 972 q 469 914 469 938 z "},"Î":{"ha":840,"x_min":351,"x_max":469,"o":"m 469 914 l 469 57 q 453 17 469 35 q 411 0 436 0 q 368 17 384 0 q 351 57 351 34 l 351 914 q 369 955 351 938 q 411 972 386 972 q 452 955 434 972 q 469 914 469 938 z "},"Ï":{"ha":840,"x_min":351,"x_max":469,"o":"m 469 914 l 469 57 q 453 17 469 35 q 411 0 436 0 q 368 17 384 0 q 351 57 351 34 l 351 914 q 369 955 351 938 q 411 972 386 972 q 452 955 434 972 q 469 914 469 938 z "},"J":{"ha":840,"x_min":98,"x_max":604,"o":"m 604 913 l 604 273 q 539 73 604 146 q 363 0 474 0 q 231 31 290 0 q 135 123 172 62 q 98 265 98 184 q 115 308 98 291 q 157 325 132 325 q 199 308 181 325 q 216 265 216 291 q 257 158 216 197 q 363 118 297 118 q 453 159 420 118 q 486 273 486 201 l 486 913 q 503 955 486 937 q 546 972 519 972 q 587 955 570 972 q 604 913 604 937 z "},"K":{"ha":840,"x_min":125,"x_max":796,"o":"m 243 387 l 243 58 q 225 17 243 35 q 184 0 208 0 q 141 17 158 0 q 125 58 125 34 l 125 913 q 141 955 125 937 q 183 972 158 972 q 226 955 209 972 q 243 913 243 937 l 243 551 l 660 956 q 704 972 679 972 q 745 954 729 972 q 761 916 761 935 q 745 872 761 885 l 425 566 l 783 96 q 796 60 796 76 q 780 17 796 35 q 739 0 763 0 q 688 25 706 0 l 339 482 l 243 387 z "},"L":{"ha":840,"x_min":161,"x_max":729,"o":"m 279 118 l 672 118 q 711 101 694 118 q 729 58 729 83 q 711 17 729 33 q 672 0 694 0 l 220 0 q 178 17 195 0 q 161 58 161 33 l 161 913 q 178 955 161 937 q 220 972 195 972 q 262 955 245 972 q 279 913 279 937 l 279 118 z "},"M":{"ha":840,"x_min":62,"x_max":757,"o":"m 354 277 l 180 647 l 180 58 q 164 18 180 36 q 121 0 148 0 q 78 18 94 0 q 62 58 62 35 l 62 916 q 79 955 62 937 q 118 972 95 972 q 153 962 138 972 q 175 937 168 952 l 410 432 l 644 937 q 699 972 659 972 q 739 955 722 972 q 757 916 757 937 l 757 58 q 740 17 757 35 q 699 0 724 0 q 655 18 671 0 q 639 58 639 35 l 639 647 l 465 277 q 410 239 448 239 q 354 277 371 239 z "},"™":{"ha":840,"x_min":62,"x_max":757,"o":"m 354 277 l 180 647 l 180 58 q 164 18 180 36 q 121 0 148 0 q 78 18 94 0 q 62 58 62 35 l 62 916 q 79 955 62 937 q 118 972 95 972 q 153 962 138 972 q 175 937 168 952 l 410 432 l 644 937 q 699 972 659 972 q 739 955 722 972 q 757 916 757 937 l 757 58 q 740 17 757 35 q 699 0 724 0 q 655 18 671 0 q 639 58 639 35 l 639 647 l 465 277 q 410 239 448 239 q 354 277 371 239 z "},"N":{"ha":840,"x_min":90,"x_max":730,"o":"m 612 269 l 612 914 q 630 955 612 938 q 671 972 647 972 q 712 955 694 972 q 730 914 730 938 l 730 60 q 711 14 730 28 q 672 0 692 0 q 638 9 650 0 q 614 37 626 18 l 208 700 l 208 58 q 192 18 208 36 q 149 0 175 0 q 106 18 121 0 q 90 58 90 35 l 90 914 q 107 955 90 937 q 147 972 124 972 q 179 964 165 972 q 198 946 193 955 l 203 937 l 612 269 z "},"Ñ":{"ha":840,"x_min":90,"x_max":730,"o":"m 612 269 l 612 914 q 630 955 612 938 q 671 972 647 972 q 712 955 694 972 q 730 914 730 938 l 730 60 q 711 14 730 28 q 672 0 692 0 q 638 9 650 0 q 614 37 626 18 l 208 700 l 208 58 q 192 18 208 36 q 149 0 175 0 q 106 18 121 0 q 90 58 90 35 l 90 914 q 107 955 90 937 q 147 972 124 972 q 179 964 165 972 q 198 946 193 955 l 203 937 l 612 269 z "},"O":{"ha":840,"x_min":49,"x_max":771,"o":"m 408 974 q 526 956 473 974 q 616 909 580 938 q 682 838 653 880 q 727 754 710 797 q 753 661 743 711 q 767 570 764 611 q 771 486 771 528 q 761 352 771 416 q 725 221 751 287 q 659 108 699 156 q 554 30 619 60 q 407 0 490 0 q 287 20 341 0 q 196 73 232 41 q 132 151 160 106 q 89 239 104 195 q 64 333 74 283 q 52 418 54 382 q 49 486 49 453 q 53 566 49 526 q 68 656 57 607 q 95 749 79 705 q 140 835 112 793 q 205 907 169 877 q 294 956 241 937 q 408 974 346 974 m 407 118 q 512 143 467 118 q 584 206 558 168 q 627 295 610 243 q 648 392 643 347 q 653 486 653 437 q 647 583 653 536 q 624 682 641 631 q 581 770 607 732 q 510 831 554 807 q 408 856 465 856 q 231 756 296 856 q 167 486 167 656 q 172 404 167 444 q 186 321 176 363 q 215 242 197 278 q 259 178 234 207 q 323 134 285 150 q 407 118 361 118 z "},"Ò":{"ha":840,"x_min":49,"x_max":771,"o":"m 408 974 q 526 956 473 974 q 616 909 580 938 q 682 838 653 880 q 727 754 710 797 q 753 661 743 711 q 767 570 764 611 q 771 486 771 528 q 761 352 771 416 q 725 221 751 287 q 659 108 699 156 q 554 30 619 60 q 407 0 490 0 q 287 20 341 0 q 196 73 232 41 q 132 151 160 106 q 89 239 104 195 q 64 333 74 283 q 52 418 54 382 q 49 486 49 453 q 53 566 49 526 q 68 656 57 607 q 95 749 79 705 q 140 835 112 793 q 205 907 169 877 q 294 956 241 937 q 408 974 346 974 m 407 118 q 512 143 467 118 q 584 206 558 168 q 627 295 610 243 q 648 392 643 347 q 653 486 653 437 q 647 583 653 536 q 624 682 641 631 q 581 770 607 732 q 510 831 554 807 q 408 856 465 856 q 231 756 296 856 q 167 486 167 656 q 172 404 167 444 q 186 321 176 363 q 215 242 197 278 q 259 178 234 207 q 323 134 285 150 q 407 118 361 118 z "},"Ó":{"ha":840,"x_min":49,"x_max":771,"o":"m 408 974 q 526 956 473 974 q 616 909 580 938 q 682 838 653 880 q 727 754 710 797 q 753 661 743 711 q 767 570 764 611 q 771 486 771 528 q 761 352 771 416 q 725 221 751 287 q 659 108 699 156 q 554 30 619 60 q 407 0 490 0 q 287 20 341 0 q 196 73 232 41 q 132 151 160 106 q 89 239 104 195 q 64 333 74 283 q 52 418 54 382 q 49 486 49 453 q 53 566 49 526 q 68 656 57 607 q 95 749 79 705 q 140 835 112 793 q 205 907 169 877 q 294 956 241 937 q 408 974 346 974 m 407 118 q 512 143 467 118 q 584 206 558 168 q 627 295 610 243 q 648 392 643 347 q 653 486 653 437 q 647 583 653 536 q 624 682 641 631 q 581 770 607 732 q 510 831 554 807 q 408 856 465 856 q 231 756 296 856 q 167 486 167 656 q 172 404 167 444 q 186 321 176 363 q 215 242 197 278 q 259 178 234 207 q 323 134 285 150 q 407 118 361 118 z "},"Ô":{"ha":840,"x_min":49,"x_max":771,"o":"m 408 974 q 526 956 473 974 q 616 909 580 938 q 682 838 653 880 q 727 754 710 797 q 753 661 743 711 q 767 570 764 611 q 771 486 771 528 q 761 352 771 416 q 725 221 751 287 q 659 108 699 156 q 554 30 619 60 q 407 0 490 0 q 287 20 341 0 q 196 73 232 41 q 132 151 160 106 q 89 239 104 195 q 64 333 74 283 q 52 418 54 382 q 49 486 49 453 q 53 566 49 526 q 68 656 57 607 q 95 749 79 705 q 140 835 112 793 q 205 907 169 877 q 294 956 241 937 q 408 974 346 974 m 407 118 q 512 143 467 118 q 584 206 558 168 q 627 295 610 243 q 648 392 643 347 q 653 486 653 437 q 647 583 653 536 q 624 682 641 631 q 581 770 607 732 q 510 831 554 807 q 408 856 465 856 q 231 756 296 856 q 167 486 167 656 q 172 404 167 444 q 186 321 176 363 q 215 242 197 278 q 259 178 234 207 q 323 134 285 150 q 407 118 361 118 z "},"Õ":{"ha":840,"x_min":49,"x_max":771,"o":"m 408 974 q 526 956 473 974 q 616 909 580 938 q 682 838 653 880 q 727 754 710 797 q 753 661 743 711 q 767 570 764 611 q 771 486 771 528 q 761 352 771 416 q 725 221 751 287 q 659 108 699 156 q 554 30 619 60 q 407 0 490 0 q 287 20 341 0 q 196 73 232 41 q 132 151 160 106 q 89 239 104 195 q 64 333 74 283 q 52 418 54 382 q 49 486 49 453 q 53 566 49 526 q 68 656 57 607 q 95 749 79 705 q 140 835 112 793 q 205 907 169 877 q 294 956 241 937 q 408 974 346 974 m 407 118 q 512 143 467 118 q 584 206 558 168 q 627 295 610 243 q 648 392 643 347 q 653 486 653 437 q 647 583 653 536 q 624 682 641 631 q 581 770 607 732 q 510 831 554 807 q 408 856 465 856 q 231 756 296 856 q 167 486 167 656 q 172 404 167 444 q 186 321 176 363 q 215 242 197 278 q 259 178 234 207 q 323 134 285 150 q 407 118 361 118 z "},"Ö":{"ha":840,"x_min":49,"x_max":771,"o":"m 408 974 q 526 956 473 974 q 616 909 580 938 q 682 838 653 880 q 727 754 710 797 q 753 661 743 711 q 767 570 764 611 q 771 486 771 528 q 761 352 771 416 q 725 221 751 287 q 659 108 699 156 q 554 30 619 60 q 407 0 490 0 q 287 20 341 0 q 196 73 232 41 q 132 151 160 106 q 89 239 104 195 q 64 333 74 283 q 52 418 54 382 q 49 486 49 453 q 53 566 49 526 q 68 656 57 607 q 95 749 79 705 q 140 835 112 793 q 205 907 169 877 q 294 956 241 937 q 408 974 346 974 m 407 118 q 512 143 467 118 q 584 206 558 168 q 627 295 610 243 q 648 392 643 347 q 653 486 653 437 q 647 583 653 536 q 624 682 641 631 q 581 770 607 732 q 510 831 554 807 q 408 856 465 856 q 231 756 296 856 q 167 486 167 656 q 172 404 167 444 q 186 321 176 363 q 215 242 197 278 q 259 178 234 207 q 323 134 285 150 q 407 118 361 118 z "},"P":{"ha":840,"x_min":71,"x_max":751,"o":"m 189 414 l 189 58 q 173 18 189 36 q 131 0 157 0 q 86 18 102 0 q 71 58 71 35 l 71 913 q 87 955 71 937 q 131 972 104 972 l 476 972 q 545 965 510 972 q 618 937 581 957 q 685 886 656 916 q 733 806 714 855 q 751 694 751 756 q 728 581 751 632 q 672 500 705 530 q 597 449 638 470 q 525 421 557 429 q 469 414 493 414 l 189 414 m 189 532 l 469 532 q 513 540 488 532 q 566 566 538 549 q 614 617 595 583 q 633 694 633 651 q 623 758 633 730 q 596 804 612 786 q 558 833 579 821 q 516 850 536 845 q 476 854 496 854 l 189 854 l 189 532 z "},"Q":{"ha":840,"x_min":49,"x_max":771,"o":"m 416 325 q 436 294 428 311 q 450 266 445 277 q 459 232 455 254 q 465 201 463 210 q 469 163 466 193 q 473 126 473 134 q 565 180 528 140 q 621 275 603 220 q 646 380 639 330 q 653 486 653 431 q 647 583 653 536 q 624 682 641 631 q 581 770 607 732 q 510 831 554 807 q 408 856 465 856 q 231 756 296 856 q 167 486 167 656 q 177 365 167 422 q 209 257 188 308 q 268 172 231 207 q 354 125 304 137 q 345 204 349 179 q 327 244 342 216 q 311 292 311 272 q 329 332 311 315 q 370 349 347 349 q 393 343 379 349 q 416 325 408 337 m 771 486 q 763 365 771 423 q 734 246 755 306 q 683 139 714 186 q 600 56 651 92 q 485 8 549 21 q 491 -31 487 -14 q 501 -64 494 -47 q 520 -92 508 -81 q 549 -106 532 -103 q 588 -127 574 -111 q 602 -164 602 -144 q 586 -206 602 -189 q 542 -224 570 -224 q 426 -163 477 -224 q 370 1 374 -102 q 260 28 309 5 q 178 84 210 52 q 120 162 145 117 q 82 249 96 207 q 61 340 69 292 q 51 421 54 388 q 49 486 49 454 q 53 566 49 526 q 68 656 57 607 q 95 749 79 705 q 140 835 112 793 q 205 907 169 877 q 294 956 241 937 q 408 974 346 974 q 523 956 471 974 q 612 908 575 938 q 677 838 648 879 q 723 753 706 797 q 752 661 741 710 q 767 570 763 612 q 771 486 771 528 z "},"R":{"ha":840,"x_min":64,"x_max":757,"o":"m 182 414 l 182 58 q 166 18 182 36 q 123 0 150 0 q 80 18 96 0 q 64 58 64 36 l 64 913 q 81 956 64 939 q 123 972 99 972 l 467 972 q 537 964 502 972 q 610 936 572 956 q 676 886 648 916 q 724 806 705 855 q 742 694 742 756 q 730 611 742 650 q 701 546 719 572 q 660 498 682 519 q 616 463 638 476 q 576 441 594 450 q 546 430 557 433 l 534 427 l 745 97 l 748 91 q 754 76 751 85 q 757 57 757 68 q 739 17 757 34 q 699 0 722 0 q 647 28 665 0 l 404 414 l 182 414 m 182 532 l 461 532 q 494 536 475 532 q 536 553 513 541 q 579 583 559 566 q 611 630 598 601 q 624 694 624 659 q 613 758 624 730 q 586 804 603 786 q 548 833 570 821 q 507 850 527 845 q 467 854 486 854 l 182 854 l 182 532 z "},"S":{"ha":840,"x_min":110,"x_max":711,"o":"m 441 564 q 525 531 490 546 q 597 491 559 516 q 658 438 635 467 q 696 368 681 410 q 711 275 711 326 q 690 165 711 214 q 637 86 669 116 q 565 36 606 56 q 487 8 524 16 q 415 0 450 0 q 294 18 349 0 q 207 60 239 35 q 151 115 174 85 q 119 165 127 144 q 110 197 110 186 q 127 242 110 225 q 165 258 144 258 q 221 228 208 258 q 415 118 271 118 q 540 159 488 118 q 593 275 593 201 q 581 331 593 305 q 552 373 569 356 q 506 407 534 391 q 455 432 478 422 q 400 453 433 441 q 306 493 347 472 q 225 546 265 514 q 164 621 186 577 q 143 720 143 665 q 147 771 143 746 q 161 826 151 795 q 192 881 171 857 q 243 927 213 906 q 323 961 274 949 q 433 972 372 972 q 545 952 493 972 q 627 902 597 931 q 675 846 658 873 q 692 803 692 819 q 675 759 692 777 q 633 742 658 742 q 579 774 597 742 q 521 832 559 810 q 433 854 483 854 q 310 822 359 854 q 261 720 261 790 q 272 671 261 693 q 299 634 283 648 q 342 605 315 619 q 389 582 369 590 q 441 564 409 574 z "},"Š":{"ha":840,"x_min":110,"x_max":711,"o":"m 441 564 q 525 531 490 546 q 597 491 559 516 q 658 438 635 467 q 696 368 681 410 q 711 275 711 326 q 690 165 711 214 q 637 86 669 116 q 565 36 606 56 q 487 8 524 16 q 415 0 450 0 q 294 18 349 0 q 207 60 239 35 q 151 115 174 85 q 119 165 127 144 q 110 197 110 186 q 127 242 110 225 q 165 258 144 258 q 221 228 208 258 q 415 118 271 118 q 540 159 488 118 q 593 275 593 201 q 581 331 593 305 q 552 373 569 356 q 506 407 534 391 q 455 432 478 422 q 400 453 433 441 q 306 493 347 472 q 225 546 265 514 q 164 621 186 577 q 143 720 143 665 q 147 771 143 746 q 161 826 151 795 q 192 881 171 857 q 243 927 213 906 q 323 961 274 949 q 433 972 372 972 q 545 952 493 972 q 627 902 597 931 q 675 846 658 873 q 692 803 692 819 q 675 759 692 777 q 633 742 658 742 q 579 774 597 742 q 521 832 559 810 q 433 854 483 854 q 310 822 359 854 q 261 720 261 790 q 272 671 261 693 q 299 634 283 648 q 342 605 315 619 q 389 582 369 590 q 441 564 409 574 z "},"T":{"ha":840,"x_min":50,"x_max":772,"o":"m 469 854 l 469 58 q 452 17 469 33 q 410 0 434 0 q 368 17 384 0 q 351 58 351 34 l 351 854 l 109 854 q 67 871 85 854 q 50 914 50 888 q 67 956 50 939 q 109 972 84 972 l 713 972 q 754 955 736 972 q 772 914 772 938 q 755 871 772 888 q 713 854 737 854 l 469 854 z "},"U":{"ha":840,"x_min":92,"x_max":728,"o":"m 408 0 q 175 86 258 0 q 92 325 92 173 l 92 914 q 108 955 92 937 q 149 972 124 972 q 193 955 176 972 q 210 914 210 937 l 210 325 q 260 172 210 225 q 408 118 311 118 q 610 322 610 118 l 610 913 q 627 956 610 939 q 669 972 644 972 q 710 955 693 972 q 728 913 728 938 l 728 322 q 645 85 728 170 q 408 0 562 0 z "},"Ù":{"ha":840,"x_min":92,"x_max":728,"o":"m 408 0 q 175 86 258 0 q 92 325 92 173 l 92 914 q 108 955 92 937 q 149 972 124 972 q 193 955 176 972 q 210 914 210 937 l 210 325 q 260 172 210 225 q 408 118 311 118 q 610 322 610 118 l 610 913 q 627 956 610 939 q 669 972 644 972 q 710 955 693 972 q 728 913 728 938 l 728 322 q 645 85 728 170 q 408 0 562 0 z "},"Ú":{"ha":840,"x_min":92,"x_max":728,"o":"m 408 0 q 175 86 258 0 q 92 325 92 173 l 92 914 q 108 955 92 937 q 149 972 124 972 q 193 955 176 972 q 210 914 210 937 l 210 325 q 260 172 210 225 q 408 118 311 118 q 610 322 610 118 l 610 913 q 627 956 610 939 q 669 972 644 972 q 710 955 693 972 q 728 913 728 938 l 728 322 q 645 85 728 170 q 408 0 562 0 z "},"Û":{"ha":840,"x_min":92,"x_max":728,"o":"m 408 0 q 175 86 258 0 q 92 325 92 173 l 92 914 q 108 955 92 937 q 149 972 124 972 q 193 955 176 972 q 210 914 210 937 l 210 325 q 260 172 210 225 q 408 118 311 118 q 610 322 610 118 l 610 913 q 627 956 610 939 q 669 972 644 972 q 710 955 693 972 q 728 913 728 938 l 728 322 q 645 85 728 170 q 408 0 562 0 z "},"Ü":{"ha":840,"x_min":92,"x_max":728,"o":"m 408 0 q 175 86 258 0 q 92 325 92 173 l 92 914 q 108 955 92 937 q 149 972 124 972 q 193 955 176 972 q 210 914 210 937 l 210 325 q 260 172 210 225 q 408 118 311 118 q 610 322 610 118 l 610 913 q 627 956 610 939 q 669 972 644 972 q 710 955 693 972 q 728 913 728 938 l 728 322 q 645 85 728 170 q 408 0 562 0 z "},"V":{"ha":840,"x_min":93,"x_max":726,"o":"m 410 260 l 608 925 q 668 972 623 972 q 709 956 691 972 q 726 914 726 939 q 725 902 726 908 q 723 894 724 897 l 722 890 l 469 45 q 408 0 454 0 q 367 17 382 0 q 350 46 352 35 l 97 890 q 93 914 93 901 q 110 956 93 939 q 150 972 127 972 q 190 959 174 972 q 211 925 205 945 l 410 260 z "},"W":{"ha":840,"x_min":57,"x_max":762,"o":"m 410 511 l 286 49 q 284 39 286 45 q 276 23 281 32 q 257 7 270 14 q 228 0 245 0 q 201 5 213 0 q 184 18 190 11 q 175 33 178 26 q 171 46 172 41 l 170 52 l 58 897 q 58 900 58 898 q 57 906 58 902 q 57 914 57 910 q 75 956 57 940 q 115 972 92 972 q 156 957 141 972 q 175 918 172 941 l 245 293 l 353 749 q 354 753 353 751 q 359 764 355 756 q 369 777 363 771 q 386 787 375 782 q 410 791 396 791 q 445 781 431 791 q 463 760 459 770 l 467 749 l 574 293 l 644 918 q 663 957 648 941 q 704 972 678 972 q 745 956 727 972 q 762 914 762 940 q 762 906 762 910 q 761 900 762 902 q 761 897 761 898 l 650 52 q 649 46 650 50 q 644 34 648 43 q 635 18 640 24 q 618 5 629 11 q 591 0 606 0 q 555 14 571 0 q 533 49 538 28 l 410 511 z "},"X":{"ha":840,"x_min":65,"x_max":754,"o":"m 481 486 l 745 92 q 754 61 754 77 q 738 18 754 36 q 694 0 722 0 q 643 28 661 0 l 410 379 l 174 26 q 123 0 157 0 q 82 17 98 0 q 65 61 65 33 q 75 94 65 79 l 339 486 l 77 879 q 66 913 66 894 q 83 955 66 938 q 123 972 100 972 q 154 965 140 972 q 174 947 168 958 l 410 595 l 646 946 q 696 972 664 972 q 737 955 720 972 q 754 914 754 937 q 742 876 754 892 l 481 486 z "},"Y":{"ha":840,"x_min":72,"x_max":749,"o":"m 469 494 l 469 58 q 453 18 469 36 q 410 0 437 0 q 367 18 383 0 q 351 58 351 36 l 351 494 l 82 879 q 72 916 72 896 q 88 955 72 938 q 131 972 104 972 q 182 945 164 972 l 410 618 l 636 942 q 692 972 656 972 q 732 955 715 972 q 749 913 749 937 q 741 884 749 895 l 469 494 z "},"Ý":{"ha":840,"x_min":72,"x_max":749,"o":"m 469 494 l 469 58 q 453 18 469 36 q 410 0 437 0 q 367 18 383 0 q 351 58 351 36 l 351 494 l 82 879 q 72 916 72 896 q 88 955 72 938 q 131 972 104 972 q 182 945 164 972 l 410 618 l 636 942 q 692 972 656 972 q 732 955 715 972 q 749 913 749 937 q 741 884 749 895 l 469 494 z "},"Ÿ":{"ha":840,"x_min":72,"x_max":749,"o":"m 469 494 l 469 58 q 453 18 469 36 q 410 0 437 0 q 367 18 383 0 q 351 58 351 36 l 351 494 l 82 879 q 72 916 72 896 q 88 955 72 938 q 131 972 104 972 q 182 945 164 972 l 410 618 l 636 942 q 692 972 656 972 q 732 955 715 972 q 749 913 749 937 q 741 884 749 895 l 469 494 z "},"Z":{"ha":840,"x_min":49,"x_max":775,"o":"m 68 109 l 546 854 l 106 854 q 66 870 84 854 q 49 914 49 886 q 65 955 49 938 q 104 972 82 972 l 654 972 q 697 955 680 972 q 714 913 714 937 q 701 873 714 895 l 215 118 l 715 118 q 756 102 737 118 q 775 58 775 87 q 759 18 775 35 q 715 0 743 0 l 107 0 q 64 18 80 0 q 49 58 49 35 q 68 109 49 79 z "},"Ž":{"ha":840,"x_min":49,"x_max":775,"o":"m 68 109 l 546 854 l 106 854 q 66 870 84 854 q 49 914 49 886 q 65 955 49 938 q 104 972 82 972 l 654 972 q 697 955 680 972 q 714 913 714 937 q 701 873 714 895 l 215 118 l 715 118 q 756 102 737 118 q 775 58 775 87 q 759 18 775 35 q 715 0 743 0 l 107 0 q 64 18 80 0 q 49 58 49 35 q 68 109 49 79 z "},"a":{"ha":840,"x_min":103,"x_max":713,"o":"m 713 488 l 713 58 q 696 17 713 35 q 653 0 680 0 q 617 12 632 0 q 596 43 602 24 q 372 -5 488 -5 q 268 9 315 -5 q 191 46 221 23 q 141 98 161 68 q 112 155 120 127 q 103 211 103 184 q 199 403 103 333 q 465 473 295 473 q 515 471 483 473 q 571 467 548 469 l 595 464 l 595 488 q 587 515 595 500 q 561 543 578 529 q 507 567 543 557 q 424 576 471 576 q 228 542 304 576 q 183 529 199 529 q 141 546 157 529 q 125 586 125 563 q 175 648 125 633 q 315 685 260 675 q 424 694 370 694 q 539 681 488 694 q 622 646 590 667 q 675 596 654 625 q 704 541 696 568 q 713 488 713 514 m 595 176 l 595 350 q 465 357 518 357 q 350 343 399 357 q 273 308 300 330 q 233 261 245 286 q 220 211 220 237 q 258 143 220 175 q 372 111 296 111 q 448 118 411 111 q 510 134 485 125 q 556 153 536 144 q 585 170 576 163 l 595 176 z "},"ª":{"ha":840,"x_min":103,"x_max":713,"o":"m 713 488 l 713 58 q 696 17 713 35 q 653 0 680 0 q 617 12 632 0 q 596 43 602 24 q 372 -5 488 -5 q 268 9 315 -5 q 191 46 221 23 q 141 98 161 68 q 112 155 120 127 q 103 211 103 184 q 199 403 103 333 q 465 473 295 473 q 515 471 483 473 q 571 467 548 469 l 595 464 l 595 488 q 587 515 595 500 q 561 543 578 529 q 507 567 543 557 q 424 576 471 576 q 228 542 304 576 q 183 529 199 529 q 141 546 157 529 q 125 586 125 563 q 175 648 125 633 q 315 685 260 675 q 424 694 370 694 q 539 681 488 694 q 622 646 590 667 q 675 596 654 625 q 704 541 696 568 q 713 488 713 514 m 595 176 l 595 350 q 465 357 518 357 q 350 343 399 357 q 273 308 300 330 q 233 261 245 286 q 220 211 220 237 q 258 143 220 175 q 372 111 296 111 q 448 118 411 111 q 510 134 485 125 q 556 153 536 144 q 585 170 576 163 l 595 176 z "},"à":{"ha":840,"x_min":103,"x_max":713,"o":"m 713 488 l 713 58 q 696 17 713 35 q 653 0 680 0 q 617 12 632 0 q 596 43 602 24 q 372 -5 488 -5 q 268 9 315 -5 q 191 46 221 23 q 141 98 161 68 q 112 155 120 127 q 103 211 103 184 q 199 403 103 333 q 465 473 295 473 q 515 471 483 473 q 571 467 548 469 l 595 464 l 595 488 q 587 515 595 500 q 561 543 578 529 q 507 567 543 557 q 424 576 471 576 q 228 542 304 576 q 183 529 199 529 q 141 546 157 529 q 125 586 125 563 q 175 648 125 633 q 315 685 260 675 q 424 694 370 694 q 539 681 488 694 q 622 646 590 667 q 675 596 654 625 q 704 541 696 568 q 713 488 713 514 m 595 176 l 595 350 q 465 357 518 357 q 350 343 399 357 q 273 308 300 330 q 233 261 245 286 q 220 211 220 237 q 258 143 220 175 q 372 111 296 111 q 448 118 411 111 q 510 134 485 125 q 556 153 536 144 q 585 170 576 163 l 595 176 z "},"á":{"ha":840,"x_min":103,"x_max":713,"o":"m 713 488 l 713 58 q 696 17 713 35 q 653 0 680 0 q 617 12 632 0 q 596 43 602 24 q 372 -5 488 -5 q 268 9 315 -5 q 191 46 221 23 q 141 98 161 68 q 112 155 120 127 q 103 211 103 184 q 199 403 103 333 q 465 473 295 473 q 515 471 483 473 q 571 467 548 469 l 595 464 l 595 488 q 587 515 595 500 q 561 543 578 529 q 507 567 543 557 q 424 576 471 576 q 228 542 304 576 q 183 529 199 529 q 141 546 157 529 q 125 586 125 563 q 175 648 125 633 q 315 685 260 675 q 424 694 370 694 q 539 681 488 694 q 622 646 590 667 q 675 596 654 625 q 704 541 696 568 q 713 488 713 514 m 595 176 l 595 350 q 465 357 518 357 q 350 343 399 357 q 273 308 300 330 q 233 261 245 286 q 220 211 220 237 q 258 143 220 175 q 372 111 296 111 q 448 118 411 111 q 510 134 485 125 q 556 153 536 144 q 585 170 576 163 l 595 176 z "},"â":{"ha":840,"x_min":103,"x_max":713,"o":"m 713 488 l 713 58 q 696 17 713 35 q 653 0 680 0 q 617 12 632 0 q 596 43 602 24 q 372 -5 488 -5 q 268 9 315 -5 q 191 46 221 23 q 141 98 161 68 q 112 155 120 127 q 103 211 103 184 q 199 403 103 333 q 465 473 295 473 q 515 471 483 473 q 571 467 548 469 l 595 464 l 595 488 q 587 515 595 500 q 561 543 578 529 q 507 567 543 557 q 424 576 471 576 q 228 542 304 576 q 183 529 199 529 q 141 546 157 529 q 125 586 125 563 q 175 648 125 633 q 315 685 260 675 q 424 694 370 694 q 539 681 488 694 q 622 646 590 667 q 675 596 654 625 q 704 541 696 568 q 713 488 713 514 m 595 176 l 595 350 q 465 357 518 357 q 350 343 399 357 q 273 308 300 330 q 233 261 245 286 q 220 211 220 237 q 258 143 220 175 q 372 111 296 111 q 448 118 411 111 q 510 134 485 125 q 556 153 536 144 q 585 170 576 163 l 595 176 z "},"ã":{"ha":840,"x_min":103,"x_max":713,"o":"m 713 488 l 713 58 q 696 17 713 35 q 653 0 680 0 q 617 12 632 0 q 596 43 602 24 q 372 -5 488 -5 q 268 9 315 -5 q 191 46 221 23 q 141 98 161 68 q 112 155 120 127 q 103 211 103 184 q 199 403 103 333 q 465 473 295 473 q 515 471 483 473 q 571 467 548 469 l 595 464 l 595 488 q 587 515 595 500 q 561 543 578 529 q 507 567 543 557 q 424 576 471 576 q 228 542 304 576 q 183 529 199 529 q 141 546 157 529 q 125 586 125 563 q 175 648 125 633 q 315 685 260 675 q 424 694 370 694 q 539 681 488 694 q 622 646 590 667 q 675 596 654 625 q 704 541 696 568 q 713 488 713 514 m 595 176 l 595 350 q 465 357 518 357 q 350 343 399 357 q 273 308 300 330 q 233 261 245 286 q 220 211 220 237 q 258 143 220 175 q 372 111 296 111 q 448 118 411 111 q 510 134 485 125 q 556 153 536 144 q 585 170 576 163 l 595 176 z "},"ä":{"ha":840,"x_min":103,"x_max":713,"o":"m 713 488 l 713 58 q 696 17 713 35 q 653 0 680 0 q 617 12 632 0 q 596 43 602 24 q 372 -5 488 -5 q 268 9 315 -5 q 191 46 221 23 q 141 98 161 68 q 112 155 120 127 q 103 211 103 184 q 199 403 103 333 q 465 473 295 473 q 515 471 483 473 q 571 467 548 469 l 595 464 l 595 488 q 587 515 595 500 q 561 543 578 529 q 507 567 543 557 q 424 576 471 576 q 228 542 304 576 q 183 529 199 529 q 141 546 157 529 q 125 586 125 563 q 175 648 125 633 q 315 685 260 675 q 424 694 370 694 q 539 681 488 694 q 622 646 590 667 q 675 596 654 625 q 704 541 696 568 q 713 488 713 514 m 595 176 l 595 350 q 465 357 518 357 q 350 343 399 357 q 273 308 300 330 q 233 261 245 286 q 220 211 220 237 q 258 143 220 175 q 372 111 296 111 q 448 118 411 111 q 510 134 485 125 q 556 153 536 144 q 585 170 576 163 l 595 176 z "},"å":{"ha":840,"x_min":103,"x_max":713,"o":"m 713 488 l 713 58 q 696 17 713 35 q 653 0 680 0 q 617 12 632 0 q 596 43 602 24 q 372 -5 488 -5 q 268 9 315 -5 q 191 46 221 23 q 141 98 161 68 q 112 155 120 127 q 103 211 103 184 q 199 403 103 333 q 465 473 295 473 q 515 471 483 473 q 571 467 548 469 l 595 464 l 595 488 q 587 515 595 500 q 561 543 578 529 q 507 567 543 557 q 424 576 471 576 q 228 542 304 576 q 183 529 199 529 q 141 546 157 529 q 125 586 125 563 q 175 648 125 633 q 315 685 260 675 q 424 694 370 694 q 539 681 488 694 q 622 646 590 667 q 675 596 654 625 q 704 541 696 568 q 713 488 713 514 m 595 176 l 595 350 q 465 357 518 357 q 350 343 399 357 q 273 308 300 330 q 233 261 245 286 q 220 211 220 237 q 258 143 220 175 q 372 111 296 111 q 448 118 411 111 q 510 134 485 125 q 556 153 536 144 q 585 170 576 163 l 595 176 z "},"b":{"ha":840,"x_min":123,"x_max":686,"o":"m 241 505 l 241 174 q 258 158 241 171 q 314 129 274 144 q 400 114 353 114 q 523 180 477 114 q 568 346 568 246 q 517 506 568 435 q 397 576 466 576 q 342 569 368 576 q 298 551 315 562 q 267 531 280 541 q 248 513 254 520 l 241 505 m 400 -4 q 237 35 307 -4 q 182 0 220 0 q 140 17 156 0 q 123 58 123 35 l 123 914 q 141 956 123 940 q 184 972 159 972 q 224 956 206 972 q 241 914 241 939 l 241 657 q 397 694 307 694 q 544 647 477 694 q 649 519 611 600 q 686 346 686 439 q 602 94 686 192 q 400 -4 518 -4 z "},"c":{"ha":840,"x_min":87,"x_max":726,"o":"m 710 113 q 441 0 597 0 q 261 47 342 0 q 133 174 179 94 q 87 349 87 254 q 190 593 87 492 q 444 694 293 694 q 708 576 588 694 q 724 534 724 561 q 706 494 724 511 q 665 478 688 478 q 618 498 635 478 q 444 576 547 576 q 273 511 341 576 q 205 349 205 445 q 270 184 205 250 q 441 118 335 118 q 628 199 553 118 q 667 214 641 214 q 708 197 690 214 q 726 155 726 180 q 710 113 726 129 z "},"ç":{"ha":840,"x_min":87,"x_max":726,"o":"m 710 113 q 441 0 597 0 q 261 47 342 0 q 133 174 179 94 q 87 349 87 254 q 190 593 87 492 q 444 694 293 694 q 708 576 588 694 q 724 534 724 561 q 706 494 724 511 q 665 478 688 478 q 618 498 635 478 q 444 576 547 576 q 273 511 341 576 q 205 349 205 445 q 270 184 205 250 q 441 118 335 118 q 628 199 553 118 q 667 214 641 214 q 708 197 690 214 q 726 155 726 180 q 710 113 726 129 z "},"d":{"ha":840,"x_min":123,"x_max":686,"o":"m 568 174 l 568 505 q 562 513 566 508 q 543 530 557 517 q 512 552 528 543 q 468 569 495 561 q 412 576 441 576 q 293 506 344 576 q 241 346 241 435 q 287 180 241 246 q 410 114 333 114 q 496 129 456 114 q 552 158 536 144 q 568 174 568 171 m 410 -4 q 208 94 292 -4 q 123 346 123 192 q 161 519 123 439 q 266 647 199 600 q 412 694 332 694 q 568 657 503 694 l 568 914 q 586 956 568 939 q 625 972 604 972 q 669 956 651 972 q 686 914 686 940 l 686 58 q 670 17 686 35 q 628 0 654 0 q 572 35 589 0 q 410 -4 503 -4 z "},"e":{"ha":840,"x_min":74,"x_max":739,"o":"m 410 0 q 237 46 315 0 q 117 172 160 93 q 74 346 74 252 q 117 520 74 440 q 238 647 160 600 q 410 694 315 694 q 626 609 534 694 q 737 400 718 524 q 738 395 737 399 q 739 383 738 391 q 739 366 739 375 q 721 317 739 332 q 679 301 702 301 l 192 301 q 271 171 204 224 q 410 118 338 118 q 507 137 462 118 q 583 184 553 155 q 631 203 602 203 q 669 184 652 203 q 686 147 686 166 q 669 103 686 117 q 539 24 607 48 q 410 0 471 0 m 410 576 q 272 533 332 576 q 192 419 212 489 l 621 419 q 542 533 600 490 q 410 576 485 576 z "},"è":{"ha":840,"x_min":74,"x_max":739,"o":"m 410 0 q 237 46 315 0 q 117 172 160 93 q 74 346 74 252 q 117 520 74 440 q 238 647 160 600 q 410 694 315 694 q 626 609 534 694 q 737 400 718 524 q 738 395 737 399 q 739 383 738 391 q 739 366 739 375 q 721 317 739 332 q 679 301 702 301 l 192 301 q 271 171 204 224 q 410 118 338 118 q 507 137 462 118 q 583 184 553 155 q 631 203 602 203 q 669 184 652 203 q 686 147 686 166 q 669 103 686 117 q 539 24 607 48 q 410 0 471 0 m 410 576 q 272 533 332 576 q 192 419 212 489 l 621 419 q 542 533 600 490 q 410 576 485 576 z "},"é":{"ha":840,"x_min":74,"x_max":739,"o":"m 410 0 q 237 46 315 0 q 117 172 160 93 q 74 346 74 252 q 117 520 74 440 q 238 647 160 600 q 410 694 315 694 q 626 609 534 694 q 737 400 718 524 q 738 395 737 399 q 739 383 738 391 q 739 366 739 375 q 721 317 739 332 q 679 301 702 301 l 192 301 q 271 171 204 224 q 410 118 338 118 q 507 137 462 118 q 583 184 553 155 q 631 203 602 203 q 669 184 652 203 q 686 147 686 166 q 669 103 686 117 q 539 24 607 48 q 410 0 471 0 m 410 576 q 272 533 332 576 q 192 419 212 489 l 621 419 q 542 533 600 490 q 410 576 485 576 z "},"ê":{"ha":840,"x_min":74,"x_max":739,"o":"m 410 0 q 237 46 315 0 q 117 172 160 93 q 74 346 74 252 q 117 520 74 440 q 238 647 160 600 q 410 694 315 694 q 626 609 534 694 q 737 400 718 524 q 738 395 737 399 q 739 383 738 391 q 739 366 739 375 q 721 317 739 332 q 679 301 702 301 l 192 301 q 271 171 204 224 q 410 118 338 118 q 507 137 462 118 q 583 184 553 155 q 631 203 602 203 q 669 184 652 203 q 686 147 686 166 q 669 103 686 117 q 539 24 607 48 q 410 0 471 0 m 410 576 q 272 533 332 576 q 192 419 212 489 l 621 419 q 542 533 600 490 q 410 576 485 576 z "},"ë":{"ha":840,"x_min":74,"x_max":739,"o":"m 410 0 q 237 46 315 0 q 117 172 160 93 q 74 346 74 252 q 117 520 74 440 q 238 647 160 600 q 410 694 315 694 q 626 609 534 694 q 737 400 718 524 q 738 395 737 399 q 739 383 738 391 q 739 366 739 375 q 721 317 739 332 q 679 301 702 301 l 192 301 q 271 171 204 224 q 410 118 338 118 q 507 137 462 118 q 583 184 553 155 q 631 203 602 203 q 669 184 652 203 q 686 147 686 166 q 669 103 686 117 q 539 24 607 48 q 410 0 471 0 m 410 576 q 272 533 332 576 q 192 419 212 489 l 621 419 q 542 533 600 490 q 410 576 485 576 z "},"f":{"ha":840,"x_min":138,"x_max":675,"o":"m 441 576 l 441 57 q 424 17 441 34 q 383 0 407 0 q 340 17 357 0 q 323 57 323 33 l 323 576 l 196 576 q 154 593 170 576 q 138 637 138 610 q 155 677 138 661 q 196 694 172 694 l 325 694 l 325 754 q 329 797 325 774 q 347 852 332 819 q 386 911 361 886 q 458 954 410 936 q 568 972 505 972 q 609 957 591 972 q 628 916 628 941 q 612 872 628 889 q 570 854 595 854 q 511 846 536 854 q 473 827 486 838 q 452 801 460 817 q 443 775 445 786 q 441 754 441 765 l 441 694 l 615 694 q 657 677 639 694 q 675 637 675 661 q 659 594 675 612 q 616 576 642 576 l 441 576 z "},"ﬁ":{"ha":840,"x_min":138,"x_max":675,"o":"m 441 576 l 441 57 q 424 17 441 34 q 383 0 407 0 q 340 17 357 0 q 323 57 323 33 l 323 576 l 196 576 q 154 593 170 576 q 138 637 138 610 q 155 677 138 661 q 196 694 172 694 l 325 694 l 325 754 q 329 797 325 774 q 347 852 332 819 q 386 911 361 886 q 458 954 410 936 q 568 972 505 972 q 609 957 591 972 q 628 916 628 941 q 612 872 628 889 q 570 854 595 854 q 511 846 536 854 q 473 827 486 838 q 452 801 460 817 q 443 775 445 786 q 441 754 441 765 l 441 694 l 615 694 q 657 677 639 694 q 675 637 675 661 q 659 594 675 612 q 616 576 642 576 l 441 576 z "},"ﬂ":{"ha":840,"x_min":138,"x_max":675,"o":"m 441 576 l 441 57 q 424 17 441 34 q 383 0 407 0 q 340 17 357 0 q 323 57 323 33 l 323 576 l 196 576 q 154 593 170 576 q 138 637 138 610 q 155 677 138 661 q 196 694 172 694 l 325 694 l 325 754 q 329 797 325 774 q 347 852 332 819 q 386 911 361 886 q 458 954 410 936 q 568 972 505 972 q 609 957 591 972 q 628 916 628 941 q 612 872 628 889 q 570 854 595 854 q 511 846 536 854 q 473 827 486 838 q 452 801 460 817 q 443 775 445 786 q 441 754 441 765 l 441 694 l 615 694 q 657 677 639 694 q 675 637 675 661 q 659 594 675 612 q 616 576 642 576 l 441 576 z "},"g":{"ha":840,"x_min":90,"x_max":726,"o":"m 608 195 l 608 485 q 583 509 597 497 q 544 538 568 522 q 489 566 519 555 q 427 576 458 576 q 271 510 334 576 q 208 347 208 444 q 264 185 208 252 q 408 118 321 118 q 467 126 436 118 q 522 145 497 134 q 566 168 546 156 q 597 187 586 179 l 608 195 m 399 -286 q 236 -251 313 -286 q 113 -163 159 -216 q 97 -122 97 -145 q 114 -80 97 -97 q 157 -62 132 -62 q 200 -82 182 -62 q 399 -168 277 -168 q 548 -120 488 -168 q 608 8 608 -73 l 608 57 q 408 0 500 0 q 250 46 323 0 q 133 172 176 92 q 90 347 90 252 q 117 481 90 417 q 190 592 144 545 q 297 667 235 639 q 427 694 359 694 q 608 637 519 694 q 625 677 608 661 q 664 694 641 694 q 708 677 690 694 q 726 637 726 661 l 726 8 q 681 -148 726 -79 q 562 -251 636 -216 q 399 -286 488 -286 z "},"h":{"ha":840,"x_min":143,"x_max":668,"o":"m 261 479 l 261 58 q 244 17 261 33 q 201 0 227 0 q 160 17 176 0 q 143 58 143 35 l 143 916 q 161 956 143 939 q 201 972 178 972 q 243 956 226 972 q 261 916 261 939 l 261 640 q 419 694 337 694 q 511 681 470 694 q 577 647 551 667 q 621 599 602 627 q 648 548 640 571 q 662 500 656 525 q 667 466 667 475 q 668 452 668 456 l 668 58 q 650 17 668 34 q 608 0 633 0 q 567 17 584 0 q 550 58 550 34 l 550 432 q 541 492 550 465 q 517 533 531 518 q 485 559 503 549 q 452 573 467 569 q 422 576 437 576 q 371 567 397 576 q 326 542 345 557 q 292 513 307 528 q 269 490 277 499 l 261 479 z "},"i":{"ha":840,"x_min":315,"x_max":525,"o":"m 481 636 l 481 58 q 464 17 481 35 q 421 0 448 0 q 379 17 395 0 q 363 58 363 35 l 363 636 q 379 677 363 660 q 421 694 395 694 q 464 677 446 694 q 481 636 481 660 m 421 785 q 346 816 376 785 q 315 889 315 848 q 346 962 315 931 q 421 993 376 993 q 493 961 462 993 q 525 889 525 930 q 493 817 525 849 q 421 785 462 785 z "},"ì":{"ha":840,"x_min":315,"x_max":525,"o":"m 481 636 l 481 58 q 464 17 481 35 q 421 0 448 0 q 379 17 395 0 q 363 58 363 35 l 363 636 q 379 677 363 660 q 421 694 395 694 q 464 677 446 694 q 481 636 481 660 m 421 785 q 346 816 376 785 q 315 889 315 848 q 346 962 315 931 q 421 993 376 993 q 493 961 462 993 q 525 889 525 930 q 493 817 525 849 q 421 785 462 785 z "},"í":{"ha":840,"x_min":315,"x_max":525,"o":"m 481 636 l 481 58 q 464 17 481 35 q 421 0 448 0 q 379 17 395 0 q 363 58 363 35 l 363 636 q 379 677 363 660 q 421 694 395 694 q 464 677 446 694 q 481 636 481 660 m 421 785 q 346 816 376 785 q 315 889 315 848 q 346 962 315 931 q 421 993 376 993 q 493 961 462 993 q 525 889 525 930 q 493 817 525 849 q 421 785 462 785 z "},"î":{"ha":840,"x_min":315,"x_max":525,"o":"m 481 636 l 481 58 q 464 17 481 35 q 421 0 448 0 q 379 17 395 0 q 363 58 363 35 l 363 636 q 379 677 363 660 q 421 694 395 694 q 464 677 446 694 q 481 636 481 660 m 421 785 q 346 816 376 785 q 315 889 315 848 q 346 962 315 931 q 421 993 376 993 q 493 961 462 993 q 525 889 525 930 q 493 817 525 849 q 421 785 462 785 z "},"ï":{"ha":840,"x_min":315,"x_max":525,"o":"m 481 636 l 481 58 q 464 17 481 35 q 421 0 448 0 q 379 17 395 0 q 363 58 363 35 l 363 636 q 379 677 363 660 q 421 694 395 694 q 464 677 446 694 q 481 636 481 660 m 421 785 q 346 816 376 785 q 315 889 315 848 q 346 962 315 931 q 421 993 376 993 q 493 961 462 993 q 525 889 525 930 q 493 817 525 849 q 421 785 462 785 z "},"j":{"ha":840,"x_min":86,"x_max":640,"o":"m 536 785 q 461 816 491 785 q 431 889 431 848 q 461 962 431 931 q 536 993 491 993 q 608 961 576 993 q 640 889 640 930 q 608 817 640 849 q 536 785 576 785 m 476 -37 l 476 639 q 492 676 476 659 q 536 694 509 694 q 578 676 561 694 q 595 637 595 659 l 595 -35 q 520 -213 595 -139 q 340 -288 446 -288 q 161 -213 236 -288 q 86 -35 86 -139 q 103 5 86 -12 q 144 22 121 22 q 186 5 168 22 q 204 -35 204 -12 q 243 -131 204 -93 q 340 -170 283 -170 q 437 -132 399 -170 q 476 -37 476 -94 z "},"k":{"ha":840,"x_min":161,"x_max":732,"o":"m 279 244 l 279 56 q 261 17 279 35 q 221 0 243 0 q 179 17 196 0 q 161 56 161 34 l 161 916 q 178 955 161 938 q 221 972 195 972 q 262 955 245 972 q 279 916 279 937 l 279 400 l 586 679 q 627 694 602 694 q 668 677 650 694 q 686 637 686 661 q 668 593 686 611 l 472 419 l 721 93 q 732 56 732 79 q 715 18 732 35 q 673 0 699 0 q 625 22 642 0 l 387 339 l 279 244 z "},"l":{"ha":840,"x_min":347,"x_max":465,"o":"m 465 914 l 465 57 q 448 17 465 34 q 406 0 431 0 q 365 16 383 0 q 347 57 347 31 l 347 914 q 364 956 347 939 q 407 972 381 972 q 447 956 429 972 q 465 914 465 939 z "},"m":{"ha":840,"x_min":77,"x_max":734,"o":"m 734 453 l 734 56 q 717 17 734 34 q 675 0 700 0 q 633 17 650 0 q 616 56 616 34 l 616 453 q 547 576 616 576 q 489 542 512 576 q 467 454 467 507 l 467 56 q 449 17 467 34 q 407 0 432 0 q 367 16 385 0 q 349 57 349 31 l 349 453 q 278 576 349 576 q 218 543 241 576 q 195 454 195 509 l 195 56 q 178 17 195 34 q 136 0 161 0 q 93 17 110 0 q 77 56 77 33 l 77 637 q 94 677 77 661 q 135 694 111 694 q 163 687 151 694 q 182 671 176 680 l 187 664 q 199 672 191 667 q 231 686 207 677 q 279 694 255 694 q 344 679 310 694 q 396 648 378 664 l 415 633 q 420 640 417 636 q 436 655 424 644 q 463 673 448 665 q 499 688 477 682 q 547 694 522 694 q 686 631 637 694 q 734 453 734 568 z "},"n":{"ha":840,"x_min":149,"x_max":664,"o":"m 664 452 l 664 56 q 646 17 664 33 q 606 0 628 0 q 564 16 581 0 q 546 56 546 32 l 546 425 q 525 542 546 507 q 444 576 503 576 q 389 569 417 576 q 340 552 361 562 q 301 532 319 542 q 275 514 284 522 l 267 507 l 267 57 q 249 16 267 32 q 205 0 232 0 q 166 16 183 0 q 149 57 149 33 l 149 637 q 165 677 149 661 q 208 694 182 694 q 245 681 229 694 q 265 647 262 667 q 446 694 347 694 q 608 629 551 694 q 664 452 664 563 z "},"ñ":{"ha":840,"x_min":149,"x_max":664,"o":"m 664 452 l 664 56 q 646 17 664 33 q 606 0 628 0 q 564 16 581 0 q 546 56 546 32 l 546 425 q 525 542 546 507 q 444 576 503 576 q 389 569 417 576 q 340 552 361 562 q 301 532 319 542 q 275 514 284 522 l 267 507 l 267 57 q 249 16 267 32 q 205 0 232 0 q 166 16 183 0 q 149 57 149 33 l 149 637 q 165 677 149 661 q 208 694 182 694 q 245 681 229 694 q 265 647 262 667 q 446 694 347 694 q 608 629 551 694 q 664 452 664 563 z "},"o":{"ha":840,"x_min":58,"x_max":754,"o":"m 754 346 q 707 174 754 254 q 579 47 660 94 q 406 0 499 0 q 231 46 311 0 q 105 173 151 93 q 58 346 58 252 q 105 520 58 439 q 231 647 151 600 q 406 694 311 694 q 580 647 500 694 q 707 519 661 600 q 754 346 754 439 m 636 346 q 569 509 636 442 q 406 576 502 576 q 243 510 309 576 q 176 346 176 443 q 243 184 176 250 q 406 118 309 118 q 569 184 503 118 q 636 346 636 250 z "},"º":{"ha":840,"x_min":58,"x_max":754,"o":"m 754 346 q 707 174 754 254 q 579 47 660 94 q 406 0 499 0 q 231 46 311 0 q 105 173 151 93 q 58 346 58 252 q 105 520 58 439 q 231 647 151 600 q 406 694 311 694 q 580 647 500 694 q 707 519 661 600 q 754 346 754 439 m 636 346 q 569 509 636 442 q 406 576 502 576 q 243 510 309 576 q 176 346 176 443 q 243 184 176 250 q 406 118 309 118 q 569 184 503 118 q 636 346 636 250 z "},"ò":{"ha":840,"x_min":58,"x_max":754,"o":"m 754 346 q 707 174 754 254 q 579 47 660 94 q 406 0 499 0 q 231 46 311 0 q 105 173 151 93 q 58 346 58 252 q 105 520 58 439 q 231 647 151 600 q 406 694 311 694 q 580 647 500 694 q 707 519 661 600 q 754 346 754 439 m 636 346 q 569 509 636 442 q 406 576 502 576 q 243 510 309 576 q 176 346 176 443 q 243 184 176 250 q 406 118 309 118 q 569 184 503 118 q 636 346 636 250 z "},"ó":{"ha":840,"x_min":58,"x_max":754,"o":"m 754 346 q 707 174 754 254 q 579 47 660 94 q 406 0 499 0 q 231 46 311 0 q 105 173 151 93 q 58 346 58 252 q 105 520 58 439 q 231 647 151 600 q 406 694 311 694 q 580 647 500 694 q 707 519 661 600 q 754 346 754 439 m 636 346 q 569 509 636 442 q 406 576 502 576 q 243 510 309 576 q 176 346 176 443 q 243 184 176 250 q 406 118 309 118 q 569 184 503 118 q 636 346 636 250 z "},"ô":{"ha":840,"x_min":58,"x_max":754,"o":"m 754 346 q 707 174 754 254 q 579 47 660 94 q 406 0 499 0 q 231 46 311 0 q 105 173 151 93 q 58 346 58 252 q 105 520 58 439 q 231 647 151 600 q 406 694 311 694 q 580 647 500 694 q 707 519 661 600 q 754 346 754 439 m 636 346 q 569 509 636 442 q 406 576 502 576 q 243 510 309 576 q 176 346 176 443 q 243 184 176 250 q 406 118 309 118 q 569 184 503 118 q 636 346 636 250 z "},"õ":{"ha":840,"x_min":58,"x_max":754,"o":"m 754 346 q 707 174 754 254 q 579 47 660 94 q 406 0 499 0 q 231 46 311 0 q 105 173 151 93 q 58 346 58 252 q 105 520 58 439 q 231 647 151 600 q 406 694 311 694 q 580 647 500 694 q 707 519 661 600 q 754 346 754 439 m 636 346 q 569 509 636 442 q 406 576 502 576 q 243 510 309 576 q 176 346 176 443 q 243 184 176 250 q 406 118 309 118 q 569 184 503 118 q 636 346 636 250 z "},"ö":{"ha":840,"x_min":58,"x_max":754,"o":"m 754 346 q 707 174 754 254 q 579 47 660 94 q 406 0 499 0 q 231 46 311 0 q 105 173 151 93 q 58 346 58 252 q 105 520 58 439 q 231 647 151 600 q 406 694 311 694 q 580 647 500 694 q 707 519 661 600 q 754 346 754 439 m 636 346 q 569 509 636 442 q 406 576 502 576 q 243 510 309 576 q 176 346 176 443 q 243 184 176 250 q 406 118 309 118 q 569 184 503 118 q 636 346 636 250 z "},"p":{"ha":840,"x_min":111,"x_max":699,"o":"m 229 29 l 229 -250 q 213 -289 229 -271 q 170 -306 197 -306 q 127 -289 142 -306 q 111 -250 111 -271 l 111 636 q 128 677 111 659 q 170 694 145 694 q 204 684 189 694 q 225 656 220 673 q 392 694 314 694 q 551 646 480 694 q 661 518 623 597 q 699 347 699 439 q 612 96 699 192 q 376 0 526 0 q 310 7 347 0 q 251 22 273 15 l 229 29 m 229 521 l 229 164 q 254 146 239 155 q 304 127 270 137 q 376 118 338 118 q 528 178 476 118 q 581 347 581 238 q 527 509 581 441 q 392 576 473 576 q 317 563 357 576 q 252 534 276 549 l 229 521 z "},"q":{"ha":840,"x_min":111,"x_max":699,"o":"m 581 -250 l 581 29 q 433 0 500 0 q 198 96 284 0 q 111 347 111 192 q 149 518 111 439 q 258 646 187 597 q 418 694 330 694 q 585 656 496 694 q 605 684 589 673 q 640 694 621 694 q 682 677 665 694 q 699 636 699 659 l 699 -250 q 683 -289 699 -271 q 640 -306 667 -306 q 597 -289 613 -306 q 581 -250 581 -271 m 581 164 l 581 521 q 555 536 571 527 q 495 561 538 545 q 418 576 452 576 q 283 509 336 576 q 229 347 229 441 q 281 178 229 238 q 433 118 334 118 q 526 133 488 118 q 581 164 564 149 z "},"r":{"ha":840,"x_min":154,"x_max":693,"o":"m 272 468 l 272 57 q 254 17 272 34 q 212 0 237 0 q 170 17 186 0 q 154 58 154 35 l 154 636 q 171 677 154 659 q 212 694 188 694 q 254 677 237 694 q 272 636 272 659 l 272 629 q 489 694 358 694 q 543 688 511 694 q 610 669 575 682 q 669 635 645 657 q 693 587 693 614 q 676 547 693 563 q 633 530 659 530 q 590 549 611 530 q 570 562 578 557 q 540 571 562 566 q 488 576 517 576 q 417 565 452 576 q 357 538 382 554 q 312 506 332 522 q 282 479 292 490 l 272 468 z "},"s":{"ha":840,"x_min":123,"x_max":690,"o":"m 155 64 q 123 118 123 81 q 140 159 123 141 q 180 176 156 176 q 212 168 197 176 q 397 118 296 118 q 453 122 426 118 q 509 136 480 126 q 555 165 537 145 q 572 214 572 186 q 560 258 572 240 q 522 284 547 275 q 470 295 497 292 q 404 298 443 298 q 327 302 362 298 q 253 318 292 306 q 186 350 213 330 q 141 406 159 370 q 123 490 123 442 q 164 600 123 552 q 268 671 204 647 q 404 694 331 694 q 527 678 466 694 q 629 632 587 661 q 654 582 654 615 q 637 542 654 559 q 595 525 621 525 q 555 539 574 525 q 404 576 502 576 q 353 573 378 576 q 302 562 329 570 q 258 535 275 553 q 241 489 241 516 q 254 454 241 469 q 282 433 266 440 q 324 422 298 426 q 366 417 349 418 q 404 416 382 416 q 461 413 439 414 q 517 405 484 411 q 571 391 550 399 q 617 368 593 383 q 656 333 642 353 q 681 282 671 313 q 690 214 690 252 q 606 57 690 115 q 397 0 521 0 q 155 64 270 0 z "},"š":{"ha":840,"x_min":123,"x_max":690,"o":"m 155 64 q 123 118 123 81 q 140 159 123 141 q 180 176 156 176 q 212 168 197 176 q 397 118 296 118 q 453 122 426 118 q 509 136 480 126 q 555 165 537 145 q 572 214 572 186 q 560 258 572 240 q 522 284 547 275 q 470 295 497 292 q 404 298 443 298 q 327 302 362 298 q 253 318 292 306 q 186 350 213 330 q 141 406 159 370 q 123 490 123 442 q 164 600 123 552 q 268 671 204 647 q 404 694 331 694 q 527 678 466 694 q 629 632 587 661 q 654 582 654 615 q 637 542 654 559 q 595 525 621 525 q 555 539 574 525 q 404 576 502 576 q 353 573 378 576 q 302 562 329 570 q 258 535 275 553 q 241 489 241 516 q 254 454 241 469 q 282 433 266 440 q 324 422 298 426 q 366 417 349 418 q 404 416 382 416 q 461 413 439 414 q 517 405 484 411 q 571 391 550 399 q 617 368 593 383 q 656 333 642 353 q 681 282 671 313 q 690 214 690 252 q 606 57 690 115 q 397 0 521 0 q 155 64 270 0 z "},"t":{"ha":840,"x_min":78,"x_max":736,"o":"m 467 576 l 467 57 q 450 17 467 34 q 407 0 433 0 q 365 17 382 0 q 349 57 349 33 l 349 576 l 135 576 q 94 593 111 576 q 78 636 78 610 q 95 677 78 661 q 135 694 113 694 l 349 694 l 349 914 q 366 955 349 938 q 407 972 383 972 q 449 956 431 972 q 467 916 467 939 l 467 694 l 676 694 q 718 678 700 694 q 736 636 736 661 q 719 594 736 611 q 676 576 702 576 l 467 576 z "},"u":{"ha":840,"x_min":149,"x_max":664,"o":"m 664 637 l 664 56 q 647 18 664 35 q 604 0 631 0 q 565 15 581 0 q 546 50 548 30 q 372 -9 454 -9 q 207 56 266 -9 q 149 232 149 121 l 149 637 q 166 678 149 662 q 207 694 184 694 q 249 677 231 694 q 267 636 267 661 l 267 261 q 290 144 267 182 q 368 106 314 106 q 420 115 393 106 q 469 138 448 125 q 508 166 490 152 q 536 189 526 180 l 546 199 l 546 637 q 563 677 546 661 q 604 694 581 694 q 646 677 629 694 q 664 637 664 660 z "},"ù":{"ha":840,"x_min":149,"x_max":664,"o":"m 664 637 l 664 56 q 647 18 664 35 q 604 0 631 0 q 565 15 581 0 q 546 50 548 30 q 372 -9 454 -9 q 207 56 266 -9 q 149 232 149 121 l 149 637 q 166 678 149 662 q 207 694 184 694 q 249 677 231 694 q 267 636 267 661 l 267 261 q 290 144 267 182 q 368 106 314 106 q 420 115 393 106 q 469 138 448 125 q 508 166 490 152 q 536 189 526 180 l 546 199 l 546 637 q 563 677 546 661 q 604 694 581 694 q 646 677 629 694 q 664 637 664 660 z "},"ú":{"ha":840,"x_min":149,"x_max":664,"o":"m 664 637 l 664 56 q 647 18 664 35 q 604 0 631 0 q 565 15 581 0 q 546 50 548 30 q 372 -9 454 -9 q 207 56 266 -9 q 149 232 149 121 l 149 637 q 166 678 149 662 q 207 694 184 694 q 249 677 231 694 q 267 636 267 661 l 267 261 q 290 144 267 182 q 368 106 314 106 q 420 115 393 106 q 469 138 448 125 q 508 166 490 152 q 536 189 526 180 l 546 199 l 546 637 q 563 677 546 661 q 604 694 581 694 q 646 677 629 694 q 664 637 664 660 z "},"û":{"ha":840,"x_min":149,"x_max":664,"o":"m 664 637 l 664 56 q 647 18 664 35 q 604 0 631 0 q 565 15 581 0 q 546 50 548 30 q 372 -9 454 -9 q 207 56 266 -9 q 149 232 149 121 l 149 637 q 166 678 149 662 q 207 694 184 694 q 249 677 231 694 q 267 636 267 661 l 267 261 q 290 144 267 182 q 368 106 314 106 q 420 115 393 106 q 469 138 448 125 q 508 166 490 152 q 536 189 526 180 l 546 199 l 546 637 q 563 677 546 661 q 604 694 581 694 q 646 677 629 694 q 664 637 664 660 z "},"ü":{"ha":840,"x_min":149,"x_max":664,"o":"m 664 637 l 664 56 q 647 18 664 35 q 604 0 631 0 q 565 15 581 0 q 546 50 548 30 q 372 -9 454 -9 q 207 56 266 -9 q 149 232 149 121 l 149 637 q 166 678 149 662 q 207 694 184 694 q 249 677 231 694 q 267 636 267 661 l 267 261 q 290 144 267 182 q 368 106 314 106 q 420 115 393 106 q 469 138 448 125 q 508 166 490 152 q 536 189 526 180 l 546 199 l 546 637 q 563 677 546 661 q 604 694 581 694 q 646 677 629 694 q 664 637 664 660 z "},"v":{"ha":840,"x_min":100,"x_max":713,"o":"m 406 0 q 351 35 367 0 l 107 604 q 100 637 100 621 q 117 677 100 661 q 157 694 134 694 q 212 660 197 694 l 406 208 l 600 661 q 621 685 606 676 q 654 694 636 694 q 696 676 680 694 q 713 635 713 659 q 705 604 713 621 l 461 35 q 406 0 446 0 z "},"w":{"ha":840,"x_min":92,"x_max":721,"o":"m 407 293 l 330 43 q 322 25 328 34 q 303 8 317 17 q 272 0 290 0 q 236 11 253 0 q 215 45 220 22 l 96 606 l 92 635 q 108 677 92 660 q 150 694 125 694 q 188 681 172 694 q 208 647 204 667 l 281 240 l 349 511 q 371 543 355 531 q 407 554 387 554 q 441 542 425 554 q 464 511 458 530 l 532 240 l 604 647 q 624 681 608 667 q 663 694 640 694 q 704 677 688 694 q 721 635 721 660 q 717 606 720 615 l 597 45 q 576 11 593 22 q 541 0 559 0 q 509 8 523 0 q 490 25 496 17 q 482 43 485 34 l 407 293 z "},"x":{"ha":840,"x_min":71,"x_max":743,"o":"m 729 597 l 486 347 l 722 103 q 742 58 742 83 q 725 17 742 35 q 682 0 707 0 q 640 17 657 0 l 406 264 l 174 18 q 132 0 157 0 q 87 17 104 0 q 71 58 71 33 q 86 98 71 83 l 325 347 l 89 595 q 74 636 74 612 q 91 677 74 660 q 132 694 107 694 q 174 677 159 694 l 406 431 l 642 677 q 684 694 659 694 q 726 676 709 694 q 743 635 743 659 q 729 597 743 612 z "},"y":{"ha":840,"x_min":125,"x_max":688,"o":"m 406 241 l 575 661 q 596 685 581 676 q 628 694 611 694 q 671 676 654 694 q 688 633 688 658 q 682 610 688 626 l 329 -269 q 308 -296 323 -286 q 273 -306 293 -306 q 232 -289 249 -306 q 215 -249 215 -272 q 220 -225 215 -235 l 345 86 l 129 612 q 125 639 125 622 q 140 676 125 657 q 182 694 155 694 q 217 684 203 694 q 237 660 231 673 l 406 241 z "},"ý":{"ha":840,"x_min":125,"x_max":688,"o":"m 406 241 l 575 661 q 596 685 581 676 q 628 694 611 694 q 671 676 654 694 q 688 633 688 658 q 682 610 688 626 l 329 -269 q 308 -296 323 -286 q 273 -306 293 -306 q 232 -289 249 -306 q 215 -249 215 -272 q 220 -225 215 -235 l 345 86 l 129 612 q 125 639 125 622 q 140 676 125 657 q 182 694 155 694 q 217 684 203 694 q 237 660 231 673 l 406 241 z "},"ÿ":{"ha":840,"x_min":125,"x_max":688,"o":"m 406 241 l 575 661 q 596 685 581 676 q 628 694 611 694 q 671 676 654 694 q 688 633 688 658 q 682 610 688 626 l 329 -269 q 308 -296 323 -286 q 273 -306 293 -306 q 232 -289 249 -306 q 215 -249 215 -272 q 220 -225 215 -235 l 345 86 l 129 612 q 125 639 125 622 q 140 676 125 657 q 182 694 155 694 q 217 684 203 694 q 237 660 231 673 l 406 241 z "},"z":{"ha":840,"x_min":103,"x_max":710,"o":"m 281 118 l 652 118 q 693 100 676 118 q 710 57 710 83 q 693 17 710 34 q 652 0 675 0 l 158 0 q 119 17 134 0 q 103 57 103 34 q 115 97 103 82 l 510 576 l 193 576 q 151 595 166 576 q 136 636 136 613 q 153 677 136 659 q 193 694 170 694 l 628 694 q 671 677 653 694 q 689 635 689 661 q 667 586 689 612 l 281 118 z "},"ž":{"ha":840,"x_min":103,"x_max":710,"o":"m 281 118 l 652 118 q 693 100 676 118 q 710 57 710 83 q 693 17 710 34 q 652 0 675 0 l 158 0 q 119 17 134 0 q 103 57 103 34 q 115 97 103 82 l 510 576 l 193 576 q 151 595 166 576 q 136 636 136 613 q 153 677 136 659 q 193 694 170 694 l 628 694 q 671 677 653 694 q 689 635 689 661 q 667 586 689 612 l 281 118 z "},"­":{"ha":840,"x_min":211,"x_max":628,"o":"m 268 542 l 570 542 q 610 525 593 542 q 628 484 628 507 q 611 441 628 459 q 570 424 595 424 l 268 424 q 227 441 243 424 q 211 484 211 458 q 228 525 211 507 q 268 542 245 542 z "},"¶":{"ha":840,"x_min":111,"x_max":729,"o":"m 664 857 l 664 0 l 549 0 l 549 857 l 452 857 l 452 0 l 336 0 l 336 431 q 323 431 332 431 q 292 437 315 432 q 247 452 269 443 q 200 482 226 461 q 156 530 174 503 q 124 603 137 557 q 111 704 111 648 q 121 794 111 753 q 148 862 132 835 q 186 910 163 889 q 231 942 208 930 q 278 961 253 954 q 322 970 303 968 q 359 972 341 972 l 729 972 l 729 857 l 664 857 z "},"·":{"ha":840,"x_min":265,"x_max":575,"o":"m 265 416 q 310 526 265 480 q 419 571 355 571 q 529 526 484 571 q 575 416 575 480 q 530 306 575 351 q 419 261 484 261 q 310 306 355 261 q 265 416 265 351 z "},"’":{"ha":840,"x_min":297,"x_max":515,"o":"m 363 808 q 357 811 361 809 q 345 819 354 812 q 329 834 336 825 q 317 858 322 842 q 311 890 311 873 q 339 959 311 926 q 411 993 367 993 q 485 961 454 993 q 515 889 515 930 q 497 809 515 848 q 453 743 479 769 q 399 700 427 716 q 354 684 372 684 q 314 696 332 684 q 297 733 297 709 q 306 754 297 745 q 332 777 314 763 q 363 808 350 791 z "},"∙":{"ha":840,"x_min":265,"x_max":575,"o":"m 265 416 q 310 526 265 480 q 419 571 355 571 q 529 526 484 571 q 575 416 575 480 q 530 306 575 351 q 419 261 484 261 q 310 306 355 261 q 265 416 265 351 z "}}}
